<svg width="456" height="456" viewBox="0 0 456 456" fill="none" xmlns="http://www.w3.org/2000/svg">
<g clip-path="url(#clip0_41_42389)">
<rect width="456" height="456" rx="80" fill="url(#paint0_radial_41_42389)"/>
<path d="M368.615 48V46.195H371.693V36.467H369.185V35.08C369.844 34.966 370.414 34.8203 370.895 34.643C371.389 34.4657 371.839 34.2503 372.244 33.997H373.897V46.195H376.614V48H368.615ZM383.27 48.266C382.358 48.266 381.56 47.9937 380.876 47.449C380.192 46.9043 379.66 46.0937 379.28 45.017C378.913 43.9277 378.729 42.5723 378.729 40.951C378.729 39.3297 378.913 37.987 379.28 36.923C379.66 35.859 380.192 35.0673 380.876 34.548C381.56 34.016 382.358 33.75 383.27 33.75C384.182 33.75 384.974 34.016 385.645 34.548C386.316 35.08 386.836 35.878 387.203 36.942C387.583 37.9933 387.773 39.3297 387.773 40.951C387.773 42.5723 387.583 43.9277 387.203 45.017C386.836 46.0937 386.316 46.9043 385.645 47.449C384.974 47.9937 384.182 48.266 383.27 48.266ZM383.27 46.518C383.739 46.518 384.157 46.3343 384.524 45.967C384.891 45.5997 385.176 45.0107 385.379 44.2C385.582 43.3767 385.683 42.2937 385.683 40.951C385.683 39.6083 385.582 38.538 385.379 37.74C385.176 36.942 384.891 36.3657 384.524 36.011C384.157 35.6563 383.739 35.479 383.27 35.479C382.801 35.479 382.383 35.6563 382.016 36.011C381.649 36.3657 381.357 36.942 381.142 37.74C380.939 38.538 380.838 39.6083 380.838 40.951C380.838 42.2937 380.939 43.3767 381.142 44.2C381.357 45.0107 381.649 45.5997 382.016 45.967C382.383 46.3343 382.801 46.518 383.27 46.518ZM391.503 40.78C391.098 40.78 390.749 40.6407 390.458 40.362C390.179 40.0707 390.04 39.7033 390.04 39.26C390.04 38.804 390.179 38.4303 390.458 38.139C390.749 37.8477 391.098 37.702 391.503 37.702C391.921 37.702 392.269 37.8477 392.548 38.139C392.839 38.4303 392.985 38.804 392.985 39.26C392.985 39.7033 392.839 40.0707 392.548 40.362C392.269 40.6407 391.921 40.78 391.503 40.78ZM391.503 48.266C391.098 48.266 390.749 48.1203 390.458 47.829C390.179 47.525 390.04 47.1513 390.04 46.708C390.04 46.252 390.179 45.8847 390.458 45.606C390.749 45.3147 391.098 45.169 391.503 45.169C391.921 45.169 392.269 45.3147 392.548 45.606C392.839 45.8847 392.985 46.252 392.985 46.708C392.985 47.1513 392.839 47.525 392.548 47.829C392.269 48.1203 391.921 48.266 391.503 48.266ZM399.765 48.266C398.853 48.266 398.055 47.9937 397.371 47.449C396.687 46.9043 396.155 46.0937 395.775 45.017C395.408 43.9277 395.224 42.5723 395.224 40.951C395.224 39.3297 395.408 37.987 395.775 36.923C396.155 35.859 396.687 35.0673 397.371 34.548C398.055 34.016 398.853 33.75 399.765 33.75C400.677 33.75 401.469 34.016 402.14 34.548C402.811 35.08 403.331 35.878 403.698 36.942C404.078 37.9933 404.268 39.3297 404.268 40.951C404.268 42.5723 404.078 43.9277 403.698 45.017C403.331 46.0937 402.811 46.9043 402.14 47.449C401.469 47.9937 400.677 48.266 399.765 48.266ZM399.765 46.518C400.234 46.518 400.652 46.3343 401.019 45.967C401.386 45.5997 401.671 45.0107 401.874 44.2C402.077 43.3767 402.178 42.2937 402.178 40.951C402.178 39.6083 402.077 38.538 401.874 37.74C401.671 36.942 401.386 36.3657 401.019 36.011C400.652 35.6563 400.234 35.479 399.765 35.479C399.296 35.479 398.878 35.6563 398.511 36.011C398.144 36.3657 397.852 36.942 397.637 37.74C397.434 38.538 397.333 39.6083 397.333 40.951C397.333 42.2937 397.434 43.3767 397.637 44.2C397.852 45.0107 398.144 45.5997 398.511 45.967C398.878 46.3343 399.296 46.518 399.765 46.518ZM410.601 48.266C409.727 48.266 408.948 48.1077 408.264 47.791C407.58 47.4617 407.035 47.0183 406.63 46.461C406.237 45.891 406.041 45.245 406.041 44.523C406.041 43.9023 406.161 43.3513 406.402 42.87C406.643 42.3887 406.953 41.977 407.333 41.635C407.713 41.2803 408.112 40.989 408.53 40.761V40.666C408.023 40.2987 407.586 39.849 407.219 39.317C406.852 38.7723 406.668 38.1327 406.668 37.398C406.668 36.676 406.839 36.0427 407.181 35.498C407.536 34.9533 408.011 34.5353 408.606 34.244C409.214 33.94 409.904 33.788 410.677 33.788C411.488 33.788 412.184 33.9463 412.767 34.263C413.35 34.5797 413.799 35.0167 414.116 35.574C414.445 36.1187 414.61 36.7583 414.61 37.493C414.61 37.9617 414.515 38.405 414.325 38.823C414.135 39.241 413.901 39.621 413.622 39.963C413.356 40.2923 413.071 40.5647 412.767 40.78V40.875C413.198 41.103 413.59 41.388 413.945 41.73C414.3 42.0593 414.585 42.4583 414.8 42.927C415.015 43.3957 415.123 43.9467 415.123 44.58C415.123 45.264 414.933 45.8847 414.553 46.442C414.186 46.9993 413.66 47.4427 412.976 47.772C412.305 48.1013 411.513 48.266 410.601 48.266ZM411.532 40.229C411.937 39.8363 412.241 39.4247 412.444 38.994C412.659 38.5507 412.767 38.0883 412.767 37.607C412.767 37.189 412.685 36.809 412.52 36.467C412.355 36.125 412.108 35.859 411.779 35.669C411.462 35.4663 411.076 35.365 410.62 35.365C410.05 35.365 409.575 35.5487 409.195 35.916C408.815 36.2707 408.625 36.7647 408.625 37.398C408.625 37.9047 408.758 38.329 409.024 38.671C409.29 39.013 409.645 39.3043 410.088 39.545C410.531 39.7857 411.013 40.0137 411.532 40.229ZM410.658 46.67C411.127 46.67 411.538 46.5813 411.893 46.404C412.26 46.2267 412.545 45.9797 412.748 45.663C412.951 45.3337 413.052 44.9473 413.052 44.504C413.052 44.086 412.963 43.725 412.786 43.421C412.609 43.1043 412.362 42.832 412.045 42.604C411.741 42.376 411.38 42.167 410.962 41.977C410.544 41.7743 410.094 41.578 409.613 41.388C409.132 41.73 408.739 42.1543 408.435 42.661C408.131 43.155 407.979 43.6997 407.979 44.295C407.979 44.7637 408.093 45.1753 408.321 45.53C408.562 45.8847 408.885 46.1633 409.29 46.366C409.695 46.5687 410.151 46.67 410.658 46.67Z" fill="#AEB8C8"/>
<path d="M185.806 278.938V281.148H188.186V278.938H185.806ZM180.434 278.938V281.148H182.78V278.938H180.434ZM175.13 278.938V281.148H177.408V278.938H175.13ZM171.662 276.456H191.824V283.63H171.662V276.456ZM171.186 284.854H188.832V288.016H171.186V284.854ZM187.438 284.854H188.22L188.9 284.684L191.484 286.01C190.6 287.687 189.467 289.149 188.084 290.396C186.724 291.62 185.16 292.674 183.392 293.558C181.647 294.419 179.765 295.133 177.748 295.7C175.731 296.289 173.657 296.754 171.526 297.094C171.413 296.754 171.254 296.369 171.05 295.938C170.846 295.507 170.619 295.088 170.37 294.68C170.143 294.272 169.917 293.921 169.69 293.626C171.662 293.422 173.566 293.105 175.402 292.674C177.238 292.221 178.938 291.654 180.502 290.974C182.089 290.294 183.471 289.489 184.65 288.56C185.851 287.631 186.781 286.565 187.438 285.364V284.854ZM176.422 286.384C177.419 287.699 178.745 288.843 180.4 289.818C182.055 290.793 183.97 291.597 186.146 292.232C188.322 292.844 190.679 293.297 193.218 293.592C192.946 293.864 192.651 294.204 192.334 294.612C192.017 295.043 191.722 295.473 191.45 295.904C191.201 296.335 190.974 296.72 190.77 297.06C188.118 296.675 185.67 296.063 183.426 295.224C181.205 294.408 179.21 293.377 177.442 292.13C175.674 290.861 174.167 289.365 172.92 287.642L176.422 286.384ZM177.17 271.696V273.09H186.18V271.696H177.17ZM177.17 268.5V269.86H186.18V268.5H177.17ZM173.328 266.154H190.192V275.436H173.328V266.154ZM164.964 265.1H168.738V297.026H164.964V265.1ZM162.074 271.832L164.624 272.172C164.601 273.101 164.522 274.144 164.386 275.3C164.273 276.433 164.125 277.555 163.944 278.666C163.763 279.777 163.547 280.774 163.298 281.658L160.646 280.774C160.895 279.981 161.111 279.074 161.292 278.054C161.473 277.011 161.632 275.946 161.768 274.858C161.927 273.77 162.029 272.761 162.074 271.832ZM168.466 271.458L171.084 270.608C171.424 271.537 171.753 272.557 172.07 273.668C172.387 274.779 172.614 275.697 172.75 276.422L169.928 277.442C169.815 276.671 169.611 275.719 169.316 274.586C169.044 273.453 168.761 272.41 168.466 271.458ZM219.806 278.938V281.148H222.186V278.938H219.806ZM214.434 278.938V281.148H216.78V278.938H214.434ZM209.13 278.938V281.148H211.408V278.938H209.13ZM205.662 276.456H225.824V283.63H205.662V276.456ZM205.186 284.854H222.832V288.016H205.186V284.854ZM221.438 284.854H222.22L222.9 284.684L225.484 286.01C224.6 287.687 223.467 289.149 222.084 290.396C220.724 291.62 219.16 292.674 217.392 293.558C215.647 294.419 213.765 295.133 211.748 295.7C209.731 296.289 207.657 296.754 205.526 297.094C205.413 296.754 205.254 296.369 205.05 295.938C204.846 295.507 204.619 295.088 204.37 294.68C204.143 294.272 203.917 293.921 203.69 293.626C205.662 293.422 207.566 293.105 209.402 292.674C211.238 292.221 212.938 291.654 214.502 290.974C216.089 290.294 217.471 289.489 218.65 288.56C219.851 287.631 220.781 286.565 221.438 285.364V284.854ZM210.422 286.384C211.419 287.699 212.745 288.843 214.4 289.818C216.055 290.793 217.97 291.597 220.146 292.232C222.322 292.844 224.679 293.297 227.218 293.592C226.946 293.864 226.651 294.204 226.334 294.612C226.017 295.043 225.722 295.473 225.45 295.904C225.201 296.335 224.974 296.72 224.77 297.06C222.118 296.675 219.67 296.063 217.426 295.224C215.205 294.408 213.21 293.377 211.442 292.13C209.674 290.861 208.167 289.365 206.92 287.642L210.422 286.384ZM211.17 271.696V273.09H220.18V271.696H211.17ZM211.17 268.5V269.86H220.18V268.5H211.17ZM207.328 266.154H224.192V275.436H207.328V266.154ZM198.964 265.1H202.738V297.026H198.964V265.1ZM196.074 271.832L198.624 272.172C198.601 273.101 198.522 274.144 198.386 275.3C198.273 276.433 198.125 277.555 197.944 278.666C197.763 279.777 197.547 280.774 197.298 281.658L194.646 280.774C194.895 279.981 195.111 279.074 195.292 278.054C195.473 277.011 195.632 275.946 195.768 274.858C195.927 273.77 196.029 272.761 196.074 271.832ZM202.466 271.458L205.084 270.608C205.424 271.537 205.753 272.557 206.07 273.668C206.387 274.779 206.614 275.697 206.75 276.422L203.928 277.442C203.815 276.671 203.611 275.719 203.316 274.586C203.044 273.453 202.761 272.41 202.466 271.458ZM240.784 281.522H260.742V285.364H240.784V281.522ZM248.502 269.758H252.582V292.436C252.582 293.501 252.446 294.317 252.174 294.884C251.925 295.473 251.46 295.927 250.78 296.244C250.1 296.561 249.261 296.765 248.264 296.856C247.267 296.947 246.065 296.992 244.66 296.992C244.569 296.448 244.388 295.779 244.116 294.986C243.844 294.215 243.549 293.569 243.232 293.048C244.161 293.093 245.057 293.127 245.918 293.15C246.802 293.15 247.391 293.139 247.686 293.116C248.003 293.116 248.219 293.071 248.332 292.98C248.445 292.867 248.502 292.663 248.502 292.368V269.758ZM257.24 265.508L259.96 268.84C258.668 269.18 257.263 269.497 255.744 269.792C254.248 270.064 252.695 270.302 251.086 270.506C249.477 270.71 247.867 270.88 246.258 271.016C244.649 271.152 243.085 271.265 241.566 271.356C241.498 270.88 241.351 270.313 241.124 269.656C240.897 268.976 240.682 268.421 240.478 267.99C241.951 267.877 243.447 267.741 244.966 267.582C246.507 267.423 248.015 267.242 249.488 267.038C250.984 266.834 252.389 266.607 253.704 266.358C255.019 266.086 256.197 265.803 257.24 265.508ZM256.288 271.662L260.266 272.784C259.903 273.736 259.507 274.711 259.076 275.708C258.668 276.705 258.26 277.657 257.852 278.564C257.444 279.448 257.047 280.23 256.662 280.91L253.432 279.89C253.795 279.142 254.146 278.303 254.486 277.374C254.849 276.422 255.189 275.447 255.506 274.45C255.823 273.453 256.084 272.523 256.288 271.662ZM241.158 273.294L244.524 272.172C244.932 272.943 245.306 273.781 245.646 274.688C246.009 275.572 246.315 276.456 246.564 277.34C246.813 278.201 246.983 278.983 247.074 279.686L243.47 280.944C243.425 280.241 243.289 279.448 243.062 278.564C242.835 277.68 242.552 276.785 242.212 275.878C241.895 274.949 241.543 274.087 241.158 273.294ZM232.25 268.466H239.696V287.982H232.25V284.208H236.092V272.206H232.25V268.466ZM230.21 268.466H233.78V290.804H230.21V268.466ZM277.98 268.84L281.822 269.01C281.686 272.115 281.459 275.039 281.142 277.782C280.847 280.525 280.417 283.075 279.85 285.432C279.306 287.789 278.592 289.943 277.708 291.892C276.824 293.841 275.713 295.575 274.376 297.094C274.172 296.867 273.866 296.607 273.458 296.312C273.05 296.017 272.619 295.723 272.166 295.428C271.713 295.133 271.339 294.907 271.044 294.748C272.359 293.411 273.447 291.858 274.308 290.09C275.169 288.299 275.849 286.316 276.348 284.14C276.869 281.941 277.243 279.561 277.47 277C277.719 274.439 277.889 271.719 277.98 268.84ZM274.682 267.208H287.432V270.948H274.682V267.208ZM286.276 275.946H290.866V279.448H285.222L286.276 275.946ZM290.05 275.946H290.798L291.478 275.81L293.96 276.762C293.303 280.139 292.351 283.143 291.104 285.772C289.857 288.401 288.373 290.657 286.65 292.538C284.95 294.397 283.069 295.893 281.006 297.026C280.825 296.731 280.564 296.38 280.224 295.972C279.907 295.564 279.567 295.179 279.204 294.816C278.841 294.453 278.501 294.181 278.184 294C280.179 293.003 281.969 291.699 283.556 290.09C285.165 288.458 286.525 286.531 287.636 284.31C288.747 282.066 289.551 279.539 290.05 276.728V275.946ZM280.87 277.68C281.663 280.06 282.729 282.293 284.066 284.378C285.426 286.441 287.035 288.277 288.894 289.886C290.775 291.473 292.883 292.719 295.218 293.626C294.923 293.875 294.595 294.193 294.232 294.578C293.892 294.963 293.575 295.371 293.28 295.802C292.985 296.233 292.725 296.618 292.498 296.958C290.05 295.847 287.863 294.408 285.936 292.64C284.032 290.849 282.366 288.775 280.938 286.418C279.533 284.061 278.343 281.488 277.368 278.7L280.87 277.68ZM286.786 267.208H290.696C290.401 268.568 290.061 269.996 289.676 271.492C289.313 272.988 288.951 274.427 288.588 275.81C288.225 277.193 287.874 278.405 287.534 279.448H283.726C284.089 278.36 284.451 277.125 284.814 275.742C285.177 274.337 285.528 272.897 285.868 271.424C286.208 269.928 286.514 268.523 286.786 267.208ZM266.454 268.058H273.764V288.152H266.454V284.378H270.296V271.798H266.454V268.058ZM264.244 268.058H267.712V291.144H264.244V268.058Z" fill="#F4F6FA"/>
<path d="M135.147 337V334.815H138.873V323.039H135.837V321.36C136.635 321.222 137.325 321.046 137.907 320.831C138.505 320.616 139.05 320.356 139.54 320.049H141.541V334.815H144.83V337H135.147ZM155.869 326.167H168.703V328.329H155.869V326.167ZM167.99 326.167H170.267C170.267 326.167 170.259 326.236 170.244 326.374C170.244 326.497 170.244 326.635 170.244 326.788C170.244 326.941 170.236 327.064 170.221 327.156C170.144 328.904 170.06 330.399 169.968 331.641C169.891 332.868 169.799 333.895 169.692 334.723C169.6 335.536 169.485 336.18 169.347 336.655C169.209 337.13 169.032 337.483 168.818 337.713C168.557 338.035 168.273 338.257 167.967 338.38C167.675 338.518 167.323 338.61 166.909 338.656C166.51 338.687 165.989 338.702 165.345 338.702C164.701 338.702 164.026 338.687 163.321 338.656C163.305 338.334 163.229 337.966 163.091 337.552C162.968 337.138 162.807 336.778 162.608 336.471C163.313 336.532 163.965 336.571 164.563 336.586C165.176 336.586 165.621 336.586 165.897 336.586C166.326 336.586 166.64 336.494 166.84 336.31C167.039 336.095 167.208 335.643 167.346 334.953C167.484 334.263 167.599 333.243 167.691 331.894C167.798 330.529 167.898 328.751 167.99 326.558V326.167ZM158.767 317.979L161.09 318.623C160.568 319.926 159.94 321.184 159.204 322.395C158.483 323.591 157.701 324.695 156.858 325.707C156.014 326.719 155.14 327.601 154.236 328.352C154.098 328.183 153.914 327.999 153.684 327.8C153.454 327.585 153.216 327.371 152.971 327.156C152.741 326.941 152.541 326.773 152.373 326.65C153.277 325.991 154.128 325.209 154.926 324.304C155.738 323.399 156.474 322.41 157.134 321.337C157.793 320.248 158.337 319.129 158.767 317.979ZM167.116 317.933C167.468 318.684 167.898 319.459 168.404 320.256C168.91 321.038 169.454 321.805 170.037 322.556C170.619 323.307 171.225 324.005 171.854 324.649C172.482 325.278 173.096 325.83 173.694 326.305C173.525 326.443 173.326 326.619 173.096 326.834C172.866 327.049 172.651 327.271 172.452 327.501C172.252 327.731 172.084 327.946 171.946 328.145C171.332 327.578 170.711 326.941 170.083 326.236C169.454 325.515 168.833 324.741 168.22 323.913C167.622 323.07 167.054 322.211 166.518 321.337C165.981 320.463 165.506 319.589 165.092 318.715L167.116 317.933ZM160.147 326.788H162.447C162.309 328.061 162.109 329.295 161.849 330.491C161.588 331.687 161.174 332.822 160.607 333.895C160.039 334.968 159.25 335.942 158.238 336.816C157.226 337.675 155.899 338.403 154.259 339.001C154.167 338.802 154.044 338.587 153.891 338.357C153.737 338.127 153.569 337.897 153.385 337.667C153.216 337.452 153.047 337.268 152.879 337.115C154.397 336.609 155.616 335.988 156.536 335.252C157.456 334.516 158.153 333.696 158.629 332.791C159.119 331.871 159.464 330.905 159.664 329.893C159.878 328.881 160.039 327.846 160.147 326.788ZM184.688 322.326H196.188V332.745H194.118V324.419H186.666V332.906H184.688V322.326ZM189.311 317.634H191.45V338.955H189.311V317.634ZM185.838 329.387H195.176V331.503H185.838V329.387ZM178.478 317.634L180.41 318.209C180.103 319.068 179.727 319.926 179.283 320.785C178.853 321.644 178.378 322.449 177.857 323.2C177.351 323.936 176.806 324.595 176.224 325.178C176.162 325.009 176.07 324.795 175.948 324.534C175.825 324.273 175.695 324.005 175.557 323.729C175.419 323.453 175.288 323.231 175.166 323.062C175.856 322.403 176.492 321.598 177.075 320.647C177.657 319.681 178.125 318.677 178.478 317.634ZM178.202 320.072H184.044V322.073H177.811L178.202 320.072ZM178.8 338.817L178.501 336.931L179.214 336.172L184.021 333.849C184.051 334.14 184.097 334.47 184.159 334.838C184.235 335.206 184.304 335.505 184.366 335.735C183.277 336.302 182.388 336.762 181.698 337.115C181.008 337.483 180.471 337.767 180.088 337.966C179.704 338.181 179.421 338.349 179.237 338.472C179.053 338.595 178.907 338.71 178.8 338.817ZM177.075 324.235H183.607V326.19H177.075V324.235ZM175.787 328.927H184.067V330.882H175.787V328.927ZM178.8 338.817C178.738 338.664 178.639 338.487 178.501 338.288C178.378 338.089 178.24 337.889 178.087 337.69C177.949 337.506 177.818 337.36 177.696 337.253C177.941 337.084 178.217 336.808 178.524 336.425C178.83 336.042 178.984 335.566 178.984 334.999V324.741H181.054V336.356C181.054 336.356 180.977 336.417 180.824 336.54C180.67 336.663 180.479 336.816 180.249 337C180.034 337.184 179.812 337.383 179.582 337.598C179.367 337.828 179.183 338.05 179.03 338.265C178.876 338.48 178.8 338.664 178.8 338.817ZM214.142 325.592C214.632 325.592 215.077 325.715 215.476 325.96C215.874 326.205 216.196 326.527 216.442 326.926C216.687 327.309 216.81 327.754 216.81 328.26C216.81 328.735 216.687 329.18 216.442 329.594C216.196 329.993 215.874 330.315 215.476 330.56C215.092 330.805 214.648 330.928 214.142 330.928C213.666 330.928 213.222 330.813 212.808 330.583C212.409 330.338 212.087 330.016 211.842 329.617C211.596 329.203 211.474 328.751 211.474 328.26C211.474 327.769 211.589 327.325 211.819 326.926C212.064 326.527 212.386 326.205 212.785 325.96C213.199 325.715 213.651 325.592 214.142 325.592ZM235.408 318.025L237.317 317.519C237.547 318.01 237.769 318.546 237.984 319.129C238.214 319.696 238.39 320.179 238.513 320.578L236.512 321.199C236.42 320.77 236.259 320.256 236.029 319.658C235.814 319.06 235.607 318.516 235.408 318.025ZM231.774 321.222H241.963V323.246H231.774V321.222ZM235.546 325.96H239.732V327.938H235.546V325.96ZM238.996 325.96H241.066C241.066 325.96 241.066 326.021 241.066 326.144C241.066 326.251 241.066 326.382 241.066 326.535C241.066 326.673 241.058 326.788 241.043 326.88C241.012 328.751 240.974 330.338 240.928 331.641C240.897 332.944 240.851 334.018 240.79 334.861C240.728 335.689 240.644 336.341 240.537 336.816C240.445 337.276 240.322 337.613 240.169 337.828C239.969 338.104 239.755 338.303 239.525 338.426C239.31 338.549 239.042 338.633 238.72 338.679C238.444 338.725 238.083 338.748 237.639 338.748C237.194 338.763 236.726 338.756 236.236 338.725C236.205 338.434 236.144 338.096 236.052 337.713C235.96 337.33 235.837 337 235.684 336.724C236.098 336.77 236.481 336.801 236.834 336.816C237.202 336.816 237.478 336.816 237.662 336.816C237.815 336.816 237.945 336.793 238.053 336.747C238.16 336.701 238.26 336.617 238.352 336.494C238.444 336.356 238.52 336.088 238.582 335.689C238.658 335.275 238.72 334.685 238.766 333.918C238.812 333.136 238.85 332.132 238.881 330.905C238.927 329.663 238.965 328.153 238.996 326.374V325.96ZM244.286 321.82H253.026V323.844H244.286V321.82ZM244.677 317.565L246.908 317.933C246.632 319.436 246.287 320.9 245.873 322.326C245.459 323.752 244.976 325.078 244.424 326.305C243.872 327.532 243.235 328.605 242.515 329.525C242.407 329.372 242.254 329.188 242.055 328.973C241.855 328.758 241.648 328.544 241.434 328.329C241.219 328.114 241.027 327.946 240.859 327.823C241.518 327.026 242.085 326.083 242.561 324.994C243.051 323.905 243.473 322.732 243.826 321.475C244.178 320.202 244.462 318.899 244.677 317.565ZM249.277 322.993L251.416 323.223C251.032 325.83 250.473 328.137 249.737 330.146C249.001 332.139 248.004 333.864 246.747 335.321C245.505 336.778 243.918 338.004 241.986 339.001C241.924 338.832 241.817 338.625 241.664 338.38C241.526 338.135 241.372 337.897 241.204 337.667C241.035 337.437 240.882 337.245 240.744 337.092C242.553 336.264 244.025 335.206 245.16 333.918C246.31 332.615 247.207 331.058 247.851 329.249C248.495 327.424 248.97 325.339 249.277 322.993ZM245.252 323.568C245.62 325.623 246.126 327.539 246.77 329.318C247.429 331.081 248.288 332.622 249.346 333.941C250.419 335.26 251.722 336.272 253.256 336.977C253.102 337.13 252.926 337.314 252.727 337.529C252.543 337.744 252.359 337.966 252.175 338.196C252.006 338.441 251.868 338.664 251.761 338.863C250.12 338.004 248.748 336.847 247.644 335.39C246.555 333.933 245.673 332.231 244.999 330.284C244.324 328.337 243.78 326.205 243.366 323.89L245.252 323.568ZM234.281 322.257H236.351V327.915C236.351 329.172 236.266 330.437 236.098 331.71C235.944 332.983 235.622 334.225 235.132 335.436C234.641 336.647 233.89 337.79 232.878 338.863C232.694 338.633 232.448 338.388 232.142 338.127C231.835 337.866 231.544 337.644 231.268 337.46C232.172 336.479 232.832 335.451 233.246 334.378C233.675 333.289 233.951 332.193 234.074 331.089C234.212 329.985 234.281 328.919 234.281 327.892V322.257ZM254.728 322.303H263.031V324.35H254.728V322.303ZM258.109 317.588H260.225V338.909H258.109V317.588ZM258.063 323.706L259.305 324.189C259.121 325.14 258.898 326.113 258.638 327.11C258.377 328.107 258.078 329.088 257.741 330.054C257.419 331.005 257.066 331.894 256.683 332.722C256.315 333.535 255.924 334.232 255.51 334.815C255.448 334.616 255.356 334.386 255.234 334.125C255.111 333.864 254.973 333.604 254.82 333.343C254.682 333.082 254.551 332.86 254.429 332.676C254.812 332.185 255.188 331.595 255.556 330.905C255.924 330.2 256.269 329.441 256.591 328.628C256.913 327.815 257.196 326.995 257.442 326.167C257.702 325.324 257.909 324.503 258.063 323.706ZM260.018 324.971C260.156 325.124 260.347 325.377 260.593 325.73C260.838 326.067 261.106 326.443 261.398 326.857C261.704 327.271 262.003 327.693 262.295 328.122C262.586 328.536 262.847 328.919 263.077 329.272C263.307 329.609 263.475 329.862 263.583 330.031L262.065 331.779C261.911 331.396 261.697 330.943 261.421 330.422C261.145 329.885 260.846 329.333 260.524 328.766C260.217 328.199 259.918 327.662 259.627 327.156C259.335 326.65 259.09 326.228 258.891 325.891L260.018 324.971ZM263.744 338.334C263.698 338.181 263.629 337.966 263.537 337.69C263.445 337.429 263.345 337.161 263.238 336.885C263.146 336.609 263.054 336.371 262.962 336.172C263.238 336.08 263.491 335.865 263.721 335.528C263.966 335.191 264.227 334.738 264.503 334.171C264.671 333.895 264.894 333.45 265.17 332.837C265.446 332.208 265.752 331.465 266.09 330.606C266.427 329.747 266.757 328.835 267.079 327.869C267.401 326.903 267.684 325.929 267.93 324.948L270.23 325.776C269.831 327.11 269.371 328.452 268.85 329.801C268.328 331.135 267.776 332.423 267.194 333.665C266.611 334.892 266.021 336.011 265.423 337.023V337.069C265.423 337.069 265.338 337.115 265.17 337.207C265.001 337.299 264.802 337.406 264.572 337.529C264.357 337.667 264.165 337.805 263.997 337.943C263.828 338.096 263.744 338.227 263.744 338.334ZM263.721 338.334L263.629 336.517L264.871 335.758L274.025 334.723C274.055 335.03 274.101 335.375 274.163 335.758C274.239 336.141 274.308 336.448 274.37 336.678C272.622 336.893 271.15 337.077 269.954 337.23C268.773 337.399 267.807 337.537 267.056 337.644C266.304 337.751 265.714 337.836 265.285 337.897C264.855 337.974 264.526 338.043 264.296 338.104C264.066 338.181 263.874 338.257 263.721 338.334ZM270.529 331.25L272.369 330.491C272.783 331.242 273.204 332.055 273.634 332.929C274.063 333.788 274.454 334.631 274.807 335.459C275.159 336.272 275.42 336.992 275.589 337.621L273.588 338.541C273.434 337.897 273.189 337.161 272.852 336.333C272.53 335.49 272.162 334.623 271.748 333.734C271.349 332.845 270.943 332.017 270.529 331.25ZM266.09 318.301L268.344 318.738C268.068 319.98 267.723 321.184 267.309 322.349C266.895 323.514 266.435 324.603 265.929 325.615C265.423 326.627 264.871 327.516 264.273 328.283C264.15 328.16 263.966 328.015 263.721 327.846C263.475 327.677 263.222 327.516 262.962 327.363C262.716 327.21 262.509 327.087 262.341 326.995C262.939 326.32 263.475 325.523 263.951 324.603C264.426 323.683 264.84 322.686 265.193 321.613C265.561 320.54 265.86 319.436 266.09 318.301ZM272.093 318.048C272.553 319.827 273.089 321.391 273.703 322.74C274.316 324.074 275.067 325.293 275.957 326.397C275.65 326.627 275.336 326.911 275.014 327.248C274.692 327.585 274.446 327.915 274.278 328.237C273.603 327.332 273.005 326.397 272.484 325.431C271.978 324.45 271.525 323.392 271.127 322.257C270.743 321.122 270.383 319.88 270.046 318.531L272.093 318.048ZM277.774 326.834H298.934V329.226H277.774V326.834ZM301.05 319.267H321.589V321.475H301.05V319.267ZM309.675 321.13H311.998V338.886H309.675V321.13ZM310.94 326.65L312.389 324.948C313.063 325.255 313.769 325.615 314.505 326.029C315.256 326.428 316 326.842 316.736 327.271C317.487 327.7 318.185 328.122 318.829 328.536C319.473 328.95 320.017 329.333 320.462 329.686L318.898 331.687C318.468 331.319 317.939 330.92 317.311 330.491C316.697 330.046 316.023 329.602 315.287 329.157C314.566 328.712 313.83 328.275 313.079 327.846C312.327 327.401 311.614 327.003 310.94 326.65Z" fill="#AEB8C8"/>
<rect x="32" y="386" width="392" height="56" rx="28" fill="url(#paint1_linear_41_42389)"/>
<path d="M182.04 405.232H202.128V407.392H182.04V405.232ZM181.176 413.824H202.872V415.984H181.176V413.824ZM195.312 406.432H197.688V426.04H195.312V406.432ZM186.816 406.432H189.144V412.936C189.144 414.088 189.08 415.264 188.952 416.464C188.824 417.648 188.552 418.816 188.136 419.968C187.736 421.12 187.12 422.216 186.288 423.256C185.472 424.296 184.376 425.248 183 426.112C182.872 425.936 182.696 425.744 182.472 425.536C182.264 425.328 182.048 425.12 181.824 424.912C181.6 424.704 181.384 424.544 181.176 424.432C182.456 423.648 183.472 422.8 184.224 421.888C184.976 420.976 185.536 420.024 185.904 419.032C186.272 418.04 186.512 417.024 186.624 415.984C186.752 414.944 186.816 413.92 186.816 412.912V406.432ZM216.384 422.992H224.712V424.984H216.384V422.992ZM214.944 416.104H225.84V425.968H223.68V418.144H217.032V426.016H214.944V416.104ZM221.592 408.064L223.392 407.176C223.936 407.88 224.472 408.64 225 409.456C225.528 410.256 226 411.048 226.416 411.832C226.848 412.616 227.184 413.32 227.424 413.944L225.456 414.976C225.248 414.352 224.936 413.64 224.52 412.84C224.12 412.024 223.664 411.2 223.152 410.368C222.64 409.536 222.12 408.768 221.592 408.064ZM214.32 414.448C214.288 414.288 214.232 414.08 214.152 413.824C214.072 413.552 213.976 413.28 213.864 413.008C213.768 412.72 213.672 412.48 213.576 412.288C213.832 412.224 214.08 412.064 214.32 411.808C214.56 411.536 214.824 411.184 215.112 410.752C215.272 410.544 215.488 410.208 215.76 409.744C216.048 409.264 216.368 408.704 216.72 408.064C217.072 407.424 217.416 406.736 217.752 406C218.104 405.248 218.424 404.488 218.712 403.72L221.064 404.368C220.584 405.456 220.056 406.536 219.48 407.608C218.904 408.664 218.312 409.672 217.704 410.632C217.096 411.576 216.496 412.432 215.904 413.2V413.248C215.904 413.248 215.824 413.288 215.664 413.368C215.504 413.448 215.32 413.552 215.112 413.68C214.904 413.792 214.72 413.92 214.56 414.064C214.4 414.192 214.32 414.32 214.32 414.448ZM214.32 414.448L214.272 412.624L215.568 411.856L225.528 411.208C225.576 411.528 225.64 411.88 225.72 412.264C225.816 412.648 225.904 412.96 225.984 413.2C224.064 413.376 222.448 413.52 221.136 413.632C219.824 413.728 218.752 413.816 217.92 413.896C217.104 413.976 216.464 414.048 216 414.112C215.536 414.16 215.184 414.216 214.944 414.28C214.704 414.328 214.496 414.384 214.32 414.448ZM205.368 416.872C205.624 416.056 205.88 415.12 206.136 414.064C206.408 412.992 206.656 411.872 206.88 410.704C207.104 409.536 207.304 408.368 207.48 407.2C207.672 406.016 207.824 404.904 207.936 403.864L210.072 403.984C209.944 405.088 209.768 406.248 209.544 407.464C209.336 408.68 209.104 409.896 208.848 411.112C208.608 412.328 208.352 413.488 208.08 414.592C207.824 415.696 207.56 416.688 207.288 417.568L205.368 416.872ZM204.96 408.592H211.848V410.704H204.96V408.592ZM211.296 408.592H211.68L212.064 408.544L213.36 408.736C213.184 411.856 212.808 414.536 212.232 416.776C211.672 419 210.888 420.864 209.88 422.368C208.888 423.856 207.664 425.064 206.208 425.992C206.048 425.72 205.84 425.4 205.584 425.032C205.328 424.68 205.08 424.4 204.84 424.192C206.136 423.488 207.232 422.456 208.128 421.096C209.024 419.72 209.736 418.024 210.264 416.008C210.808 413.992 211.152 411.664 211.296 409.024V408.592ZM205.368 416.872L206.592 415.264C207.248 415.728 207.92 416.24 208.608 416.8C209.312 417.344 209.992 417.912 210.648 418.504C211.32 419.08 211.928 419.648 212.472 420.208C213.032 420.768 213.48 421.296 213.816 421.792L212.448 423.64C212.096 423.144 211.656 422.608 211.128 422.032C210.6 421.44 210.008 420.84 209.352 420.232C208.712 419.624 208.048 419.032 207.36 418.456C206.688 417.88 206.024 417.352 205.368 416.872ZM229.68 419.752C229.648 419.608 229.592 419.416 229.512 419.176C229.432 418.936 229.344 418.688 229.248 418.432C229.168 418.176 229.08 417.96 228.984 417.784C229.256 417.72 229.52 417.552 229.776 417.28C230.048 417.008 230.344 416.656 230.664 416.224C230.84 416 231.088 415.648 231.408 415.168C231.728 414.688 232.088 414.112 232.488 413.44C232.888 412.752 233.288 412.024 233.688 411.256C234.104 410.488 234.48 409.704 234.816 408.904L236.688 410.008C235.92 411.56 235.048 413.096 234.072 414.616C233.096 416.136 232.112 417.472 231.12 418.624V418.672C231.12 418.672 231.04 418.712 230.88 418.792C230.736 418.856 230.568 418.944 230.376 419.056C230.2 419.168 230.04 419.288 229.896 419.416C229.752 419.544 229.68 419.656 229.68 419.752ZM229.68 419.776L229.512 417.952L230.496 417.232L236.376 416.104C236.36 416.408 236.352 416.744 236.352 417.112C236.352 417.48 236.36 417.784 236.376 418.024C235.048 418.312 233.968 418.552 233.136 418.744C232.304 418.936 231.656 419.096 231.192 419.224C230.744 419.336 230.408 419.44 230.184 419.536C229.96 419.616 229.792 419.696 229.68 419.776ZM229.488 413.944C229.456 413.8 229.4 413.6 229.32 413.344C229.24 413.088 229.144 412.824 229.032 412.552C228.936 412.28 228.848 412.048 228.768 411.856C228.992 411.792 229.2 411.632 229.392 411.376C229.584 411.12 229.792 410.784 230.016 410.368C230.144 410.176 230.312 409.856 230.52 409.408C230.728 408.944 230.96 408.4 231.216 407.776C231.488 407.152 231.744 406.48 231.984 405.76C232.24 405.04 232.456 404.32 232.632 403.6L234.744 404.536C234.424 405.496 234.048 406.472 233.616 407.464C233.184 408.456 232.72 409.408 232.224 410.32C231.744 411.216 231.256 412.024 230.76 412.744V412.816C230.76 412.816 230.696 412.856 230.568 412.936C230.44 413.016 230.288 413.12 230.112 413.248C229.952 413.36 229.808 413.48 229.68 413.608C229.552 413.736 229.488 413.848 229.488 413.944ZM229.512 413.944L229.464 412.36L230.424 411.736L234.576 411.352C234.512 411.624 234.456 411.936 234.408 412.288C234.376 412.64 234.36 412.928 234.36 413.152C233.432 413.264 232.672 413.36 232.08 413.44C231.488 413.504 231.024 413.568 230.688 413.632C230.352 413.696 230.096 413.752 229.92 413.8C229.76 413.848 229.624 413.896 229.512 413.944ZM228.96 422.44C229.84 422.168 230.904 421.8 232.152 421.336C233.4 420.872 234.696 420.408 236.04 419.944L236.4 421.648C235.2 422.192 233.992 422.728 232.776 423.256C231.576 423.768 230.488 424.24 229.512 424.672L228.96 422.44ZM237.888 417.52V415.744L239.088 415.096H249.984V417.16H240.096C239.552 417.16 239.072 417.192 238.656 417.256C238.256 417.32 238 417.408 237.888 417.52ZM236.736 406.384H250.392V408.472H236.736V406.384ZM237.888 417.52C237.856 417.376 237.8 417.184 237.72 416.944C237.64 416.704 237.552 416.456 237.456 416.2C237.376 415.944 237.288 415.72 237.192 415.528C237.448 415.464 237.68 415.24 237.888 414.856C238.096 414.472 238.32 413.984 238.56 413.392C238.704 413.104 238.888 412.624 239.112 411.952C239.336 411.28 239.584 410.496 239.856 409.6C240.144 408.688 240.416 407.72 240.672 406.696C240.928 405.656 241.144 404.624 241.32 403.6L243.552 403.96C243.232 405.416 242.848 406.888 242.4 408.376C241.952 409.864 241.48 411.28 240.984 412.624C240.488 413.968 239.976 415.184 239.448 416.272V416.32C239.448 416.32 239.368 416.36 239.208 416.44C239.064 416.52 238.888 416.624 238.68 416.752C238.472 416.88 238.288 417.016 238.128 417.16C237.968 417.288 237.888 417.408 237.888 417.52ZM246.528 419.248L248.328 418.408C248.664 418.968 249.008 419.576 249.36 420.232C249.728 420.872 250.072 421.496 250.392 422.104C250.728 422.712 251 423.248 251.208 423.712L249.288 424.696C249.112 424.232 248.864 423.688 248.544 423.064C248.224 422.44 247.888 421.792 247.536 421.12C247.2 420.448 246.864 419.824 246.528 419.248ZM243.024 410.512H245.208V423.52C245.208 424.096 245.136 424.536 244.992 424.84C244.864 425.16 244.608 425.408 244.224 425.584C243.856 425.76 243.376 425.864 242.784 425.896C242.208 425.928 241.504 425.944 240.672 425.944C240.624 425.656 240.536 425.312 240.408 424.912C240.28 424.528 240.144 424.192 240 423.904C240.56 423.92 241.088 423.928 241.584 423.928C242.08 423.928 242.416 423.92 242.592 423.904C242.752 423.904 242.864 423.872 242.928 423.808C242.992 423.744 243.024 423.64 243.024 423.496V410.512ZM239.112 418.384L241.2 418.984C240.88 419.656 240.512 420.352 240.096 421.072C239.68 421.792 239.24 422.48 238.776 423.136C238.312 423.792 237.832 424.376 237.336 424.888C237.128 424.696 236.864 424.48 236.544 424.24C236.24 424 235.968 423.8 235.728 423.64C236.192 423.176 236.64 422.648 237.072 422.056C237.504 421.448 237.896 420.824 238.248 420.184C238.6 419.544 238.888 418.944 239.112 418.384ZM237.12 410.512H244.392V412.6H237.12V410.512ZM254.712 405.328H271.944V407.512H254.712V405.328ZM257.424 410.656L258.936 409.168C259.608 409.632 260.336 410.152 261.12 410.728C261.92 411.288 262.68 411.848 263.4 412.408C264.12 412.968 264.72 413.456 265.2 413.872L263.568 415.624C263.136 415.176 262.568 414.664 261.864 414.088C261.16 413.496 260.408 412.904 259.608 412.312C258.824 411.704 258.096 411.152 257.424 410.656ZM271.224 405.328H273.504C273.504 405.328 273.504 405.416 273.504 405.592C273.504 405.752 273.504 405.928 273.504 406.12C273.504 406.312 273.504 406.464 273.504 406.576C273.472 409.68 273.424 412.304 273.36 414.448C273.312 416.576 273.24 418.312 273.144 419.656C273.064 421 272.952 422.04 272.808 422.776C272.664 423.512 272.464 424.048 272.208 424.384C271.92 424.832 271.6 425.152 271.248 425.344C270.896 425.536 270.48 425.656 270 425.704C269.488 425.768 268.856 425.792 268.104 425.776C267.352 425.776 266.608 425.76 265.872 425.728C265.856 425.408 265.776 425.04 265.632 424.624C265.504 424.208 265.336 423.848 265.128 423.544C266.008 423.608 266.8 423.648 267.504 423.664C268.208 423.664 268.728 423.664 269.064 423.664C269.32 423.68 269.52 423.656 269.664 423.592C269.824 423.528 269.96 423.416 270.072 423.256C270.28 423.032 270.448 422.552 270.576 421.816C270.704 421.064 270.808 420 270.888 418.624C270.968 417.248 271.032 415.504 271.08 413.392C271.144 411.28 271.192 408.76 271.224 405.832V405.328ZM254.328 420.52C255.496 420.184 256.864 419.76 258.432 419.248C260 418.736 261.664 418.184 263.424 417.592C265.184 416.984 266.928 416.384 268.656 415.792L269.064 417.88C267.448 418.472 265.8 419.064 264.12 419.656C262.456 420.248 260.848 420.816 259.296 421.36C257.76 421.904 256.368 422.392 255.12 422.824L254.328 420.52Z" fill="#F4F6FA"/>
<g clip-path="url(#clip1_41_42389)">
<path opacity="0.65" d="M228 186.875C242.497 186.875 254.25 167.287 254.25 143.125C254.25 118.963 242.497 99.375 228 99.375C213.503 99.375 201.75 118.963 201.75 143.125C201.75 167.287 213.503 186.875 228 186.875Z" fill="#25ED91"/>
<path opacity="0.65" d="M249.875 191.25C274.037 191.25 293.625 179.497 293.625 165C293.625 150.503 274.037 138.75 249.875 138.75C225.713 138.75 206.125 150.503 206.125 165C206.125 179.497 225.713 191.25 249.875 191.25Z" fill="#25ED91"/>
<path opacity="0.65" d="M228 230.625C242.497 230.625 254.25 211.037 254.25 186.875C254.25 162.713 242.497 143.125 228 143.125C213.503 143.125 201.75 162.713 201.75 186.875C201.75 211.037 213.503 230.625 228 230.625Z" fill="#25ED91"/>
<path opacity="0.65" d="M206.125 191.25C230.287 191.25 249.875 179.497 249.875 165C249.875 150.503 230.287 138.75 206.125 138.75C181.963 138.75 162.375 150.503 162.375 165C162.375 179.497 181.963 191.25 206.125 191.25Z" fill="#25ED91"/>
<path d="M228 186.875C240.081 186.875 249.875 177.081 249.875 165C249.875 152.919 240.081 143.125 228 143.125C215.919 143.125 206.125 152.919 206.125 165C206.125 177.081 215.919 186.875 228 186.875Z" fill="#B7FFE3"/>
</g>
<path d="M182.978 37.724H199.414V40.888H182.978V37.724ZM189.334 28.036H192.694V46.712C192.694 47.5893 192.582 48.2613 192.358 48.728C192.153 49.2133 191.77 49.5867 191.21 49.848C190.65 50.1093 189.959 50.2773 189.138 50.352C188.317 50.4267 187.327 50.464 186.17 50.464C186.095 50.016 185.946 49.4653 185.722 48.812C185.498 48.1773 185.255 47.6453 184.994 47.216C185.759 47.2533 186.497 47.2813 187.206 47.3C187.934 47.3 188.419 47.2907 188.662 47.272C188.923 47.272 189.101 47.2347 189.194 47.16C189.287 47.0667 189.334 46.8987 189.334 46.656V28.036ZM196.53 24.536L198.77 27.28C197.706 27.56 196.549 27.8213 195.298 28.064C194.066 28.288 192.787 28.484 191.462 28.652C190.137 28.82 188.811 28.96 187.486 29.072C186.161 29.184 184.873 29.2773 183.622 29.352C183.566 28.96 183.445 28.4933 183.258 27.952C183.071 27.392 182.894 26.9347 182.726 26.58C183.939 26.4867 185.171 26.3747 186.422 26.244C187.691 26.1133 188.933 25.964 190.146 25.796C191.378 25.628 192.535 25.4413 193.618 25.236C194.701 25.012 195.671 24.7787 196.53 24.536ZM195.746 29.604L199.022 30.528C198.723 31.312 198.397 32.1147 198.042 32.936C197.706 33.7573 197.37 34.5413 197.034 35.288C196.698 36.016 196.371 36.66 196.054 37.22L193.394 36.38C193.693 35.764 193.982 35.0733 194.262 34.308C194.561 33.524 194.841 32.7213 195.102 31.9C195.363 31.0787 195.578 30.3133 195.746 29.604ZM183.286 30.948L186.058 30.024C186.394 30.6587 186.702 31.3493 186.982 32.096C187.281 32.824 187.533 33.552 187.738 34.28C187.943 34.9893 188.083 35.6333 188.158 36.212L185.19 37.248C185.153 36.6693 185.041 36.016 184.854 35.288C184.667 34.56 184.434 33.8227 184.154 33.076C183.893 32.3107 183.603 31.6013 183.286 30.948ZM175.95 26.972H182.082V43.044H175.95V39.936H179.114V30.052H175.95V26.972ZM174.27 26.972H177.21V45.368H174.27V26.972ZM213.31 27.28L216.474 27.42C216.362 29.9773 216.175 32.3853 215.914 34.644C215.671 36.9027 215.317 39.0027 214.85 40.944C214.402 42.8853 213.814 44.6587 213.086 46.264C212.358 47.8693 211.443 49.2973 210.342 50.548C210.174 50.3613 209.922 50.1467 209.586 49.904C209.25 49.6613 208.895 49.4187 208.522 49.176C208.149 48.9333 207.841 48.7467 207.598 48.616C208.681 47.5147 209.577 46.236 210.286 44.78C210.995 43.3053 211.555 41.672 211.966 39.88C212.395 38.0693 212.703 36.1093 212.89 34C213.095 31.8907 213.235 29.6507 213.31 27.28ZM210.594 25.936H221.094V29.016H210.594V25.936ZM220.142 33.132H223.922V36.016H219.274L220.142 33.132ZM223.25 33.132H223.866L224.426 33.02L226.47 33.804C225.929 36.5853 225.145 39.0587 224.118 41.224C223.091 43.3893 221.869 45.2467 220.45 46.796C219.05 48.3267 217.501 49.5587 215.802 50.492C215.653 50.2493 215.438 49.96 215.158 49.624C214.897 49.288 214.617 48.9707 214.318 48.672C214.019 48.3733 213.739 48.1493 213.478 48C215.121 47.1787 216.595 46.1053 217.902 44.78C219.227 43.436 220.347 41.8493 221.262 40.02C222.177 38.172 222.839 36.0907 223.25 33.776V33.132ZM215.69 34.56C216.343 36.52 217.221 38.3587 218.322 40.076C219.442 41.7747 220.767 43.2867 222.298 44.612C223.847 45.9187 225.583 46.9453 227.506 47.692C227.263 47.8973 226.993 48.1587 226.694 48.476C226.414 48.7933 226.153 49.1293 225.91 49.484C225.667 49.8387 225.453 50.156 225.266 50.436C223.25 49.5213 221.449 48.336 219.862 46.88C218.294 45.4053 216.922 43.6973 215.746 41.756C214.589 39.8147 213.609 37.696 212.806 35.4L215.69 34.56ZM220.562 25.936H223.782C223.539 27.056 223.259 28.232 222.942 29.464C222.643 30.696 222.345 31.8813 222.046 33.02C221.747 34.1587 221.458 35.1573 221.178 36.016H218.042C218.341 35.12 218.639 34.1027 218.938 32.964C219.237 31.8067 219.526 30.6213 219.806 29.408C220.086 28.176 220.338 27.0187 220.562 25.936ZM203.818 26.636H209.838V43.184H203.818V40.076H206.982V29.716H203.818V26.636ZM201.998 26.636H204.854V45.648H201.998V26.636ZM229.782 43.268C229.726 43.0627 229.633 42.7827 229.502 42.428C229.39 42.0733 229.269 41.7093 229.138 41.336C229.007 40.9627 228.886 40.6453 228.774 40.384C229.11 40.3093 229.427 40.1227 229.726 39.824C230.043 39.5067 230.389 39.096 230.762 38.592C230.967 38.3493 231.247 37.948 231.602 37.388C231.975 36.828 232.386 36.1653 232.834 35.4C233.301 34.616 233.767 33.776 234.234 32.88C234.701 31.984 235.111 31.088 235.466 30.192L238.21 31.788C237.351 33.5427 236.353 35.2973 235.214 37.052C234.094 38.788 232.955 40.3187 231.798 41.644V41.7C231.798 41.7 231.695 41.756 231.49 41.868C231.285 41.98 231.051 42.12 230.79 42.288C230.529 42.4373 230.295 42.6053 230.09 42.792C229.885 42.96 229.782 43.1187 229.782 43.268ZM229.754 43.268L229.502 40.636L230.874 39.6L237.678 38.312C237.641 38.76 237.613 39.264 237.594 39.824C237.594 40.3653 237.613 40.804 237.65 41.14C236.119 41.476 234.869 41.7653 233.898 42.008C232.927 42.232 232.171 42.4187 231.63 42.568C231.089 42.7173 230.678 42.848 230.398 42.96C230.137 43.072 229.922 43.1747 229.754 43.268ZM229.53 36.436C229.493 36.212 229.409 35.9227 229.278 35.568C229.147 35.1947 229.007 34.812 228.858 34.42C228.727 34.0093 228.597 33.664 228.466 33.384C228.746 33.3093 228.998 33.1227 229.222 32.824C229.465 32.5253 229.707 32.152 229.95 31.704C230.081 31.48 230.258 31.1067 230.482 30.584C230.725 30.0427 230.986 29.4173 231.266 28.708C231.565 27.9987 231.835 27.2333 232.078 26.412C232.339 25.572 232.563 24.7413 232.75 23.92L235.858 25.32C235.522 26.4027 235.102 27.5133 234.598 28.652C234.113 29.772 233.581 30.8547 233.002 31.9C232.442 32.9453 231.863 33.888 231.266 34.728V34.812C231.266 34.812 231.173 34.868 230.986 34.98C230.818 35.092 230.622 35.232 230.398 35.4C230.174 35.568 229.969 35.7453 229.782 35.932C229.614 36.1187 229.53 36.2867 229.53 36.436ZM229.558 36.436L229.474 34.168L230.818 33.272L235.578 32.908C235.503 33.3 235.429 33.7573 235.354 34.28C235.298 34.784 235.261 35.1947 235.242 35.512C234.197 35.624 233.329 35.7267 232.638 35.82C231.947 35.8947 231.397 35.9693 230.986 36.044C230.594 36.1 230.286 36.1653 230.062 36.24C229.857 36.296 229.689 36.3613 229.558 36.436ZM228.774 45.9C229.801 45.564 231.051 45.1253 232.526 44.584C234.001 44.0427 235.522 43.492 237.09 42.932L237.65 45.424C236.269 46.0773 234.869 46.7307 233.45 47.384C232.031 48.0373 230.734 48.6347 229.558 49.176L228.774 45.9ZM239.498 40.86V38.312L241.094 37.388H253.638V40.412H242.13C241.533 40.412 240.973 40.4587 240.45 40.552C239.946 40.6267 239.629 40.7293 239.498 40.86ZM238.21 27.056H254.03V30.136H238.21V27.056ZM239.498 40.86C239.442 40.6547 239.358 40.384 239.246 40.048C239.134 39.6933 239.003 39.3387 238.854 38.984C238.723 38.6107 238.602 38.2933 238.49 38.032C238.807 37.9387 239.087 37.6773 239.33 37.248C239.573 36.8187 239.834 36.2493 240.114 35.54C240.263 35.204 240.469 34.644 240.73 33.86C240.991 33.076 241.271 32.152 241.57 31.088C241.869 30.024 242.149 28.8853 242.41 27.672C242.69 26.4587 242.923 25.2547 243.11 24.06L246.386 24.48C246.05 26.2347 245.621 27.9987 245.098 29.772C244.594 31.5267 244.053 33.1973 243.474 34.784C242.895 36.3707 242.317 37.8173 241.738 39.124V39.152C241.738 39.152 241.617 39.2173 241.374 39.348C241.15 39.46 240.889 39.6093 240.59 39.796C240.31 39.9827 240.058 40.1693 239.834 40.356C239.61 40.5427 239.498 40.7107 239.498 40.86ZM249.298 42.792L251.93 41.588C252.285 42.2227 252.658 42.9133 253.05 43.66C253.442 44.388 253.815 45.0973 254.17 45.788C254.543 46.4787 254.842 47.0853 255.066 47.608L252.238 49.064C252.051 48.5413 251.79 47.916 251.454 47.188C251.118 46.46 250.763 45.7133 250.39 44.948C250.017 44.1827 249.653 43.464 249.298 42.792ZM245.154 32.096H248.402V46.992C248.402 47.776 248.309 48.3827 248.122 48.812C247.954 49.26 247.618 49.6147 247.114 49.876C246.629 50.1187 246.022 50.268 245.294 50.324C244.585 50.38 243.745 50.408 242.774 50.408C242.718 49.96 242.597 49.4467 242.41 48.868C242.242 48.308 242.055 47.8133 241.85 47.384C242.429 47.4027 242.989 47.412 243.53 47.412C244.09 47.412 244.463 47.412 244.65 47.412C244.837 47.412 244.967 47.384 245.042 47.328C245.117 47.2533 245.154 47.1227 245.154 46.936V32.096ZM240.562 41.532L243.614 42.4C243.241 43.2027 242.811 44.024 242.326 44.864C241.841 45.6853 241.327 46.488 240.786 47.272C240.245 48.0373 239.685 48.7093 239.106 49.288C238.807 49.008 238.425 48.6907 237.958 48.336C237.51 47.9813 237.118 47.7013 236.782 47.496C237.305 46.9733 237.809 46.3667 238.294 45.676C238.779 44.9853 239.218 44.2853 239.61 43.576C240.021 42.848 240.338 42.1667 240.562 41.532ZM238.658 32.096H247.142V35.176H238.658V32.096ZM258.518 25.852H278.51V29.1H258.518V25.852ZM261.682 32.712L263.922 30.5C264.65 31.004 265.453 31.5827 266.33 32.236C267.226 32.8707 268.085 33.5053 268.906 34.14C269.746 34.7747 270.437 35.3347 270.978 35.82L268.57 38.368C268.085 37.864 267.441 37.2853 266.638 36.632C265.835 35.96 264.995 35.2787 264.118 34.588C263.241 33.8973 262.429 33.272 261.682 32.712ZM277.502 25.852H280.946C280.946 25.852 280.946 25.9733 280.946 26.216C280.946 26.44 280.946 26.692 280.946 26.972C280.946 27.2333 280.946 27.4387 280.946 27.588C280.89 31.1533 280.834 34.168 280.778 36.632C280.722 39.0773 280.638 41.084 280.526 42.652C280.414 44.22 280.265 45.4427 280.078 46.32C279.91 47.1787 279.677 47.8133 279.378 48.224C278.967 48.84 278.529 49.2787 278.062 49.54C277.614 49.8013 277.073 49.9787 276.438 50.072C275.803 50.1467 275.01 50.1747 274.058 50.156C273.106 50.156 272.191 50.1467 271.314 50.128C271.295 49.6613 271.174 49.12 270.95 48.504C270.745 47.9067 270.483 47.384 270.166 46.936C271.249 47.0107 272.21 47.0573 273.05 47.076C273.89 47.076 274.534 47.076 274.982 47.076C275.281 47.076 275.523 47.0387 275.71 46.964C275.897 46.8893 276.065 46.7587 276.214 46.572C276.457 46.3107 276.653 45.7413 276.802 44.864C276.97 43.968 277.091 42.7173 277.166 41.112C277.259 39.5067 277.334 37.5 277.39 35.092C277.446 32.684 277.483 29.8467 277.502 26.58V25.852ZM258.07 43.576C259.414 43.184 260.991 42.6893 262.802 42.092C264.631 41.4947 266.563 40.8507 268.598 40.16C270.651 39.4507 272.658 38.7507 274.618 38.06L275.234 41.168C273.405 41.84 271.529 42.5307 269.606 43.24C267.702 43.9307 265.863 44.5933 264.09 45.228C262.317 45.8627 260.693 46.4413 259.218 46.964L258.07 43.576Z" fill="#F4F6FA"/>
</g>
<defs>
<radialGradient id="paint0_radial_41_42389" cx="0" cy="0" r="1" gradientUnits="userSpaceOnUse" gradientTransform="translate(228 228) scale(228)">
<stop stop-color="#0D1928"/>
<stop offset="1"/>
</radialGradient>
<linearGradient id="paint1_linear_41_42389" x1="228" y1="386" x2="228" y2="442" gradientUnits="userSpaceOnUse">
<stop stop-color="#3F82FF"/>
<stop offset="1" stop-color="#2866F6"/>
</linearGradient>
<clipPath id="clip0_41_42389">
<path d="M0 80C0 35.8172 35.8172 0 80 0H376C420.183 0 456 35.8172 456 80V376C456 420.183 420.183 456 376 456H80C35.8172 456 0 420.183 0 376V80Z" fill="white"/>
</clipPath>
<clipPath id="clip1_41_42389">
<rect width="140" height="140" fill="white" transform="translate(158 95)"/>
</clipPath>
</defs>
</svg>
