<svg width="456" height="456" viewBox="0 0 456 456" fill="none" xmlns="http://www.w3.org/2000/svg">
<g clip-path="url(#clip0_73_23998)">
<rect width="456" height="456" rx="80" fill="black"/>
<g clip-path="url(#clip1_73_23998)">
<path d="M456 0H0V456H456V0Z" fill="url(#paint0_radial_73_23998)"/>
</g>
<path d="M179.068 28.59H184.398V46.92H179.068V44.762H182.448V30.748H179.068V28.59ZM179.042 33.946H183.41V36.052H179.042V33.946ZM179.016 39.302H183.384V41.408H179.016V39.302ZM177.846 28.59H179.822V49.156H177.846V28.59ZM198.204 27.316L199.27 29.396C198.143 29.6213 196.869 29.8207 195.448 29.994C194.044 30.1673 192.597 30.306 191.106 30.41C189.633 30.514 188.22 30.5833 186.868 30.618C186.833 30.3407 186.755 30.02 186.634 29.656C186.513 29.2747 186.4 28.9453 186.296 28.668C187.319 28.5987 188.367 28.5293 189.442 28.46C190.534 28.3733 191.6 28.278 192.64 28.174C193.697 28.0527 194.694 27.9227 195.63 27.784C196.583 27.6453 197.441 27.4893 198.204 27.316ZM185.698 32.984H200.362V35.324H185.698V32.984ZM185.568 43.15H200.388V45.49H185.568V43.15ZM185.256 38.08H200.934V40.42H185.256V38.08ZM191.938 29.318H194.304V49.546H191.938V29.318ZM187.57 34.024H189.624V44.164H187.57V34.024ZM196.488 34.024H198.568V44.164H196.488V34.024ZM186.452 48.324H199.556V50.56H186.452V48.324ZM204.886 28.59H211.282V46.92H204.886V44.762H208.968V30.748H204.886V28.59ZM205.042 33.946H210.398V36.052H205.042V33.946ZM205.042 39.302H210.398V41.408H205.042V39.302ZM203.716 28.59H206.004V49.156H203.716V28.59ZM214.038 28.174H225.816V35.896H214.038V33.634H223.398V30.436H214.038V28.174ZM213.986 39.328H226.856V41.616H213.986V39.328ZM218.9 34.466H221.344C221.327 36.4247 221.396 38.262 221.552 39.978C221.725 41.694 221.951 43.202 222.228 44.502C222.523 45.7847 222.869 46.79 223.268 47.518C223.684 48.246 224.126 48.61 224.594 48.61C224.854 48.61 225.036 48.324 225.14 47.752C225.261 47.18 225.339 46.3047 225.374 45.126C225.634 45.3687 225.946 45.594 226.31 45.802C226.674 46.01 227.012 46.166 227.324 46.27C227.22 47.5007 227.055 48.454 226.83 49.13C226.605 49.8233 226.293 50.3 225.894 50.56C225.513 50.82 225.019 50.95 224.412 50.95C223.632 50.95 222.947 50.6727 222.358 50.118C221.769 49.5633 221.257 48.7747 220.824 47.752C220.408 46.7293 220.061 45.5333 219.784 44.164C219.524 42.7947 219.316 41.2867 219.16 39.64C219.021 37.9933 218.935 36.2687 218.9 34.466ZM212.712 51.262L212.504 49.156L213.596 48.298L219.654 46.946C219.637 47.2753 219.637 47.6567 219.654 48.09C219.689 48.5233 219.732 48.8787 219.784 49.156C218.38 49.52 217.236 49.8147 216.352 50.04C215.485 50.2827 214.809 50.4733 214.324 50.612C213.856 50.768 213.501 50.8893 213.258 50.976C213.033 51.08 212.851 51.1753 212.712 51.262ZM212.712 51.262C212.643 51.106 212.53 50.9153 212.374 50.69C212.235 50.4647 212.079 50.2393 211.906 50.014C211.75 49.806 211.603 49.6327 211.464 49.494C211.655 49.3727 211.871 49.1993 212.114 48.974C212.357 48.7487 212.565 48.4713 212.738 48.142C212.911 47.8127 212.998 47.44 212.998 47.024V28.174H215.338V48.584C215.338 48.584 215.243 48.6447 215.052 48.766C214.879 48.8873 214.662 49.052 214.402 49.26C214.142 49.468 213.882 49.6933 213.622 49.936C213.362 50.196 213.145 50.4387 212.972 50.664C212.799 50.8893 212.712 51.0887 212.712 51.262ZM230.99 29.11L232.628 27.602C233.131 28.0007 233.651 28.4427 234.188 28.928C234.725 29.4133 235.237 29.8987 235.722 30.384C236.207 30.852 236.606 31.2853 236.918 31.684L235.15 33.426C234.855 33.0273 234.474 32.5767 234.006 32.074C233.538 31.5713 233.035 31.06 232.498 30.54C231.978 30.02 231.475 29.5433 230.99 29.11ZM233.148 50.768L232.654 48.454L233.278 47.544L237.958 44.32C238.027 44.6493 238.14 45.0307 238.296 45.464C238.452 45.88 238.591 46.218 238.712 46.478C237.62 47.258 236.727 47.8993 236.034 48.402C235.358 48.9047 234.821 49.3033 234.422 49.598C234.041 49.8927 233.755 50.1267 233.564 50.3C233.391 50.4733 233.252 50.6293 233.148 50.768ZM229.118 35.142H234.89V37.508H229.118V35.142ZM233.148 50.768C233.079 50.5947 232.957 50.3867 232.784 50.144C232.628 49.9187 232.463 49.6933 232.29 49.468C232.117 49.2427 231.961 49.078 231.822 48.974C232.082 48.7487 232.359 48.4107 232.654 47.96C232.949 47.5093 233.096 46.946 233.096 46.27V35.142H235.54V47.83C235.54 47.83 235.453 47.908 235.28 48.064C235.124 48.2027 234.925 48.3847 234.682 48.61C234.457 48.8353 234.223 49.078 233.98 49.338C233.755 49.598 233.555 49.8493 233.382 50.092C233.226 50.352 233.148 50.5773 233.148 50.768ZM240.376 37.274H250.282V39.614H240.376V37.274ZM239.336 37.274H241.884V47.128C241.884 47.6653 241.988 48.0207 242.196 48.194C242.421 48.35 242.933 48.428 243.73 48.428C243.869 48.428 244.103 48.428 244.432 48.428C244.779 48.428 245.16 48.428 245.576 48.428C246.009 48.428 246.443 48.428 246.876 48.428C247.309 48.428 247.699 48.428 248.046 48.428C248.393 48.428 248.661 48.428 248.852 48.428C249.355 48.428 249.736 48.324 249.996 48.116C250.256 47.908 250.438 47.5007 250.542 46.894C250.646 46.2873 250.724 45.386 250.776 44.19C250.967 44.3287 251.201 44.4673 251.478 44.606C251.755 44.7447 252.041 44.866 252.336 44.97C252.631 45.074 252.899 45.152 253.142 45.204C253.021 46.6427 252.83 47.7693 252.57 48.584C252.31 49.3987 251.903 49.9707 251.348 50.3C250.793 50.6293 250.013 50.794 249.008 50.794C248.869 50.794 248.609 50.794 248.228 50.794C247.864 50.794 247.439 50.794 246.954 50.794C246.486 50.794 246.009 50.794 245.524 50.794C245.056 50.794 244.631 50.794 244.25 50.794C243.886 50.794 243.643 50.794 243.522 50.794C242.465 50.794 241.633 50.69 241.026 50.482C240.419 50.274 239.986 49.9013 239.726 49.364C239.466 48.844 239.336 48.0987 239.336 47.128V37.274ZM238.842 28.824H251.4V40.94H248.93V31.268H238.842V28.824ZM255.664 36.832H278.466V38.99H255.664V36.832ZM265.674 37.976H268.196V48.714C268.196 49.3553 268.109 49.8407 267.936 50.17C267.763 50.4993 267.442 50.742 266.974 50.898C266.523 51.054 265.943 51.1493 265.232 51.184C264.539 51.236 263.689 51.262 262.684 51.262C262.615 50.9327 262.493 50.5687 262.32 50.17C262.164 49.7713 262.008 49.4247 261.852 49.13C262.32 49.1473 262.779 49.156 263.23 49.156C263.681 49.1733 264.079 49.1733 264.426 49.156C264.773 49.156 265.007 49.156 265.128 49.156C265.336 49.156 265.475 49.1127 265.544 49.026C265.631 48.9567 265.674 48.8353 265.674 48.662V37.976ZM267.884 38.99C268.508 40.4113 269.34 41.7287 270.38 42.942C271.437 44.138 272.677 45.1693 274.098 46.036C275.519 46.9027 277.088 47.57 278.804 48.038C278.631 48.2113 278.44 48.428 278.232 48.688C278.024 48.9307 277.825 49.182 277.634 49.442C277.461 49.7193 277.313 49.9707 277.192 50.196C275.424 49.624 273.821 48.8353 272.382 47.83C270.943 46.8073 269.678 45.6027 268.586 44.216C267.511 42.812 266.619 41.2607 265.908 39.562L267.884 38.99ZM274.852 39.302L276.958 40.836C276.369 41.3387 275.736 41.85 275.06 42.37C274.384 42.8727 273.708 43.3493 273.032 43.8C272.373 44.2333 271.758 44.6233 271.186 44.97L269.522 43.592C270.094 43.228 270.701 42.8033 271.342 42.318C272.001 41.8327 272.642 41.33 273.266 40.81C273.89 40.2727 274.419 39.77 274.852 39.302ZM257.276 40.992L258.94 39.51C259.477 39.7873 260.049 40.1167 260.656 40.498C261.28 40.862 261.861 41.2347 262.398 41.616C262.953 41.9973 263.403 42.3613 263.75 42.708L262.008 44.398C261.696 44.0687 261.271 43.7047 260.734 43.306C260.197 42.89 259.625 42.4827 259.018 42.084C258.429 41.668 257.848 41.304 257.276 40.992ZM255.586 47.388C256.487 47.0587 257.536 46.6687 258.732 46.218C259.928 45.75 261.193 45.256 262.528 44.736C263.863 44.1987 265.189 43.67 266.506 43.15L266.974 45.23C265.83 45.7327 264.66 46.2527 263.464 46.79C262.285 47.31 261.133 47.8127 260.006 48.298C258.897 48.766 257.865 49.1907 256.912 49.572L255.586 47.388ZM258.16 32.646H273.578V34.856H258.16V32.646ZM272.902 28.408H273.162L273.604 28.33L275.58 28.434C275.563 29.422 275.528 30.4707 275.476 31.58C275.424 32.6893 275.355 33.7987 275.268 34.908C275.181 36 275.086 37.04 274.982 38.028L272.434 37.898C272.486 37.1527 272.538 36.364 272.59 35.532C272.659 34.6827 272.711 33.842 272.746 33.01C272.781 32.1607 272.807 31.372 272.824 30.644C272.859 29.8987 272.885 29.2573 272.902 28.72V28.408ZM257.354 28.408H273.604V30.696H257.354V28.408Z" fill="#F4F6FA"/>
<path d="M368.584 46V44.632H371.536V34.786H369.178V33.742C369.766 33.634 370.276 33.502 370.708 33.346C371.152 33.19 371.554 33.01 371.914 32.806H373.174V44.632H375.82V46H368.584ZM381.988 46.234C381.16 46.234 380.434 45.982 379.81 45.478C379.198 44.974 378.724 44.212 378.388 43.192C378.052 42.172 377.884 40.894 377.884 39.358C377.884 37.822 378.052 36.556 378.388 35.56C378.724 34.552 379.198 33.802 379.81 33.31C380.434 32.818 381.16 32.572 381.988 32.572C382.828 32.572 383.554 32.824 384.166 33.328C384.778 33.82 385.252 34.564 385.588 35.56C385.924 36.556 386.092 37.822 386.092 39.358C386.092 40.894 385.924 42.172 385.588 43.192C385.252 44.212 384.778 44.974 384.166 45.478C383.554 45.982 382.828 46.234 381.988 46.234ZM381.988 44.902C382.492 44.902 382.93 44.71 383.302 44.326C383.686 43.942 383.98 43.342 384.184 42.526C384.4 41.698 384.508 40.642 384.508 39.358C384.508 38.074 384.4 37.03 384.184 36.226C383.98 35.41 383.686 34.816 383.302 34.444C382.93 34.06 382.492 33.868 381.988 33.868C381.496 33.868 381.058 34.06 380.674 34.444C380.29 34.816 379.99 35.41 379.774 36.226C379.57 37.03 379.468 38.074 379.468 39.358C379.468 40.642 379.57 41.698 379.774 42.526C379.99 43.342 380.29 43.942 380.674 44.326C381.058 44.71 381.496 44.902 381.988 44.902ZM389.471 38.98C389.147 38.98 388.865 38.866 388.625 38.638C388.397 38.398 388.283 38.092 388.283 37.72C388.283 37.348 388.397 37.048 388.625 36.82C388.865 36.58 389.147 36.46 389.471 36.46C389.795 36.46 390.071 36.58 390.299 36.82C390.539 37.048 390.659 37.348 390.659 37.72C390.659 38.092 390.539 38.398 390.299 38.638C390.071 38.866 389.795 38.98 389.471 38.98ZM389.471 46.234C389.147 46.234 388.865 46.12 388.625 45.892C388.397 45.652 388.283 45.352 388.283 44.992C388.283 44.608 388.397 44.302 388.625 44.074C388.865 43.846 389.147 43.732 389.471 43.732C389.795 43.732 390.071 43.846 390.299 44.074C390.539 44.302 390.659 44.608 390.659 44.992C390.659 45.352 390.539 45.652 390.299 45.892C390.071 46.12 389.795 46.234 389.471 46.234ZM396.983 46.234C396.155 46.234 395.429 45.982 394.805 45.478C394.193 44.974 393.719 44.212 393.383 43.192C393.047 42.172 392.879 40.894 392.879 39.358C392.879 37.822 393.047 36.556 393.383 35.56C393.719 34.552 394.193 33.802 394.805 33.31C395.429 32.818 396.155 32.572 396.983 32.572C397.823 32.572 398.549 32.824 399.161 33.328C399.773 33.82 400.247 34.564 400.583 35.56C400.919 36.556 401.087 37.822 401.087 39.358C401.087 40.894 400.919 42.172 400.583 43.192C400.247 44.212 399.773 44.974 399.161 45.478C398.549 45.982 397.823 46.234 396.983 46.234ZM396.983 44.902C397.487 44.902 397.925 44.71 398.297 44.326C398.681 43.942 398.975 43.342 399.179 42.526C399.395 41.698 399.503 40.642 399.503 39.358C399.503 38.074 399.395 37.03 399.179 36.226C398.975 35.41 398.681 34.816 398.297 34.444C397.925 34.06 397.487 33.868 396.983 33.868C396.491 33.868 396.053 34.06 395.669 34.444C395.285 34.816 394.985 35.41 394.769 36.226C394.565 37.03 394.463 38.074 394.463 39.358C394.463 40.642 394.565 41.698 394.769 42.526C394.985 43.342 395.285 43.942 395.669 44.326C396.053 44.71 396.491 44.902 396.983 44.902ZM407.003 46.234C406.187 46.234 405.461 46.084 404.825 45.784C404.189 45.484 403.691 45.07 403.331 44.542C402.971 44.014 402.791 43.408 402.791 42.724C402.791 42.136 402.905 41.608 403.133 41.14C403.373 40.66 403.679 40.252 404.051 39.916C404.423 39.568 404.807 39.286 405.203 39.07V38.998C404.723 38.662 404.303 38.248 403.943 37.756C403.595 37.252 403.421 36.652 403.421 35.956C403.421 35.284 403.577 34.702 403.889 34.21C404.213 33.706 404.645 33.316 405.185 33.04C405.737 32.752 406.355 32.608 407.039 32.608C407.795 32.608 408.443 32.758 408.983 33.058C409.523 33.358 409.937 33.766 410.225 34.282C410.513 34.798 410.657 35.398 410.657 36.082C410.657 36.538 410.561 36.97 410.369 37.378C410.189 37.786 409.967 38.152 409.703 38.476C409.439 38.788 409.175 39.052 408.911 39.268V39.358C409.295 39.574 409.655 39.838 409.991 40.15C410.327 40.45 410.597 40.822 410.801 41.266C411.017 41.698 411.125 42.22 411.125 42.832C411.125 43.456 410.951 44.032 410.603 44.56C410.267 45.076 409.787 45.484 409.163 45.784C408.551 46.084 407.831 46.234 407.003 46.234ZM407.903 38.836C408.347 38.44 408.683 38.02 408.911 37.576C409.139 37.12 409.253 36.652 409.253 36.172C409.253 35.728 409.163 35.332 408.983 34.984C408.815 34.636 408.563 34.36 408.227 34.156C407.891 33.94 407.489 33.832 407.021 33.832C406.409 33.832 405.905 34.024 405.509 34.408C405.113 34.792 404.915 35.308 404.915 35.956C404.915 36.472 405.053 36.91 405.329 37.27C405.617 37.618 405.989 37.918 406.445 38.17C406.901 38.41 407.387 38.632 407.903 38.836ZM407.021 45.01C407.537 45.01 407.981 44.914 408.353 44.722C408.737 44.53 409.031 44.266 409.235 43.93C409.451 43.594 409.559 43.21 409.559 42.778C409.559 42.334 409.463 41.956 409.271 41.644C409.079 41.32 408.821 41.038 408.497 40.798C408.185 40.558 407.819 40.342 407.399 40.15C406.979 39.958 406.535 39.772 406.067 39.592C405.539 39.928 405.101 40.354 404.753 40.87C404.417 41.374 404.249 41.944 404.249 42.58C404.249 43.036 404.369 43.45 404.609 43.822C404.849 44.194 405.179 44.488 405.599 44.704C406.031 44.908 406.505 45.01 407.021 45.01Z" fill="#AEB8C8"/>
<rect x="439" y="177" width="3" height="96" rx="1.5" fill="#17212D"/>
<rect x="439" y="177" width="3" height="30" rx="1.5" fill="#8EA5C9"/>
<path d="M248 87.9996C242.953 85.214 237.23 83.8907 231.473 84.1783C225.716 84.4658 220.153 86.3529 215.409 89.6275C210.665 92.902 206.928 97.4344 204.618 102.716C202.308 107.997 201.516 113.817 202.331 119.524C203.146 125.23 205.536 130.596 209.233 135.019C212.929 139.442 217.786 142.747 223.257 144.562C228.728 146.378 234.597 146.632 240.204 145.296C245.811 143.96 250.935 141.087 255 137C250.209 135.279 245.978 132.285 242.762 128.34C239.546 124.394 237.466 119.647 236.746 114.607C236.026 109.568 236.693 104.428 238.676 99.7399C240.659 95.0517 243.883 90.9927 248 87.9996Z" fill="#A6C9FF"/>
<g clip-path="url(#clip2_73_23998)">
<path d="M141.668 246C141.921 240.883 142.352 236.196 142.96 231.94C143.568 227.633 144.455 223.58 145.62 219.78C146.785 215.929 148.305 212.205 150.18 208.608C152.055 204.96 154.335 201.236 157.02 197.436H130.8V189.988H166.748V195.384C163.505 199.437 160.871 203.364 158.844 207.164C156.817 210.913 155.247 214.739 154.132 218.64C153.017 222.541 152.207 226.721 151.7 231.18C151.193 235.588 150.839 240.528 150.636 246H141.668Z" fill="#F4F6FA"/>
<path d="M182.596 229.368H188.668V243.668H182.596V242.172H187.128V230.864H182.596V229.368ZM182.662 235.682H187.7V237.156H182.662V235.682ZM181.782 229.368H183.366V245.45H181.782V229.368ZM189.68 231.92H201.164V233.57H189.68V231.92ZM196.808 227.63H198.48V245.274C198.48 245.875 198.392 246.315 198.216 246.594C198.055 246.887 197.776 247.1 197.38 247.232C196.984 247.379 196.427 247.467 195.708 247.496C194.989 247.525 194.08 247.54 192.98 247.54C192.936 247.305 192.855 247.019 192.738 246.682C192.621 246.359 192.496 246.081 192.364 245.846C192.951 245.861 193.501 245.875 194.014 245.89C194.542 245.905 194.997 245.912 195.378 245.912C195.759 245.897 196.031 245.883 196.192 245.868C196.412 245.868 196.566 245.824 196.654 245.736C196.757 245.648 196.808 245.494 196.808 245.274V227.63ZM190.428 236.056L191.792 235.33C192.188 235.887 192.606 236.489 193.046 237.134C193.486 237.779 193.897 238.403 194.278 239.004C194.674 239.605 194.997 240.133 195.246 240.588L193.794 241.424C193.559 240.969 193.251 240.434 192.87 239.818C192.503 239.187 192.1 238.542 191.66 237.882C191.235 237.222 190.824 236.613 190.428 236.056Z" fill="#AEB8C8"/>
<path d="M236.764 246V209.52C236.764 208 236.815 206.201 236.916 204.124C237.017 201.996 237.093 200.172 237.144 198.652H236.84C236.131 200.071 235.396 201.515 234.636 202.984C233.927 204.453 233.167 205.897 232.356 207.316L221.412 224.112H252.04V230.952H212.52V225.1L234.788 189.988H244.972V246H236.764ZM257.688 246V240.908C263.21 235.993 267.821 231.509 271.52 227.456C275.218 223.352 277.98 219.552 279.804 216.056C281.678 212.56 282.616 209.292 282.616 206.252C282.616 204.225 282.261 202.452 281.552 200.932C280.893 199.361 279.854 198.171 278.436 197.36C277.068 196.499 275.32 196.068 273.192 196.068C271.013 196.068 269.012 196.676 267.188 197.892C265.364 199.057 263.692 200.501 262.172 202.224L257.232 197.36C259.613 194.725 262.121 192.673 264.756 191.204C267.441 189.735 270.633 189 274.332 189C277.726 189 280.69 189.709 283.224 191.128C285.757 192.496 287.708 194.447 289.076 196.98C290.494 199.463 291.204 202.401 291.204 205.796C291.204 209.393 290.317 213.041 288.544 216.74C286.77 220.388 284.338 224.087 281.248 227.836C278.157 231.535 274.636 235.284 270.684 239.084C272.153 238.932 273.698 238.805 275.32 238.704C276.992 238.552 278.486 238.476 279.804 238.476H293.864V246H257.688Z" fill="#F4F6FA"/>
<path d="M311.114 235.836H323.72V237.464H311.114V235.836ZM323.148 235.836H324.864C324.864 235.836 324.864 235.887 324.864 235.99C324.864 236.093 324.864 236.21 324.864 236.342C324.864 236.459 324.857 236.555 324.842 236.628C324.754 238.315 324.666 239.752 324.578 240.94C324.505 242.128 324.417 243.118 324.314 243.91C324.211 244.687 324.087 245.303 323.94 245.758C323.808 246.198 323.647 246.528 323.456 246.748C323.221 247.027 322.972 247.217 322.708 247.32C322.444 247.423 322.121 247.489 321.74 247.518C321.373 247.547 320.875 247.555 320.244 247.54C319.613 247.54 318.953 247.518 318.264 247.474C318.235 247.225 318.176 246.946 318.088 246.638C318 246.33 317.875 246.059 317.714 245.824C318.433 245.883 319.1 245.919 319.716 245.934C320.332 245.949 320.765 245.956 321.014 245.956C321.454 245.956 321.769 245.868 321.96 245.692C322.165 245.487 322.334 245.047 322.466 244.372C322.613 243.697 322.737 242.7 322.84 241.38C322.957 240.045 323.06 238.3 323.148 236.144V235.836ZM314.128 227.96L315.888 228.444C315.389 229.676 314.795 230.857 314.106 231.986C313.431 233.101 312.691 234.135 311.884 235.088C311.092 236.027 310.256 236.848 309.376 237.552C309.288 237.435 309.156 237.295 308.98 237.134C308.804 236.973 308.621 236.819 308.43 236.672C308.254 236.511 308.1 236.379 307.968 236.276C308.848 235.645 309.677 234.897 310.454 234.032C311.231 233.167 311.928 232.221 312.544 231.194C313.175 230.153 313.703 229.075 314.128 227.96ZM321.806 227.916C322.158 228.649 322.576 229.405 323.06 230.182C323.544 230.959 324.065 231.707 324.622 232.426C325.194 233.145 325.781 233.805 326.382 234.406C326.983 235.007 327.57 235.528 328.142 235.968C328.01 236.071 327.856 236.203 327.68 236.364C327.519 236.525 327.357 236.694 327.196 236.87C327.049 237.046 326.917 237.207 326.8 237.354C326.228 236.855 325.641 236.269 325.04 235.594C324.439 234.919 323.845 234.193 323.258 233.416C322.686 232.639 322.143 231.832 321.63 230.996C321.117 230.16 320.669 229.339 320.288 228.532L321.806 227.916ZM315.492 236.298H317.23C317.098 237.501 316.9 238.674 316.636 239.818C316.387 240.947 315.983 242.018 315.426 243.03C314.883 244.042 314.135 244.959 313.182 245.78C312.229 246.587 310.982 247.269 309.442 247.826C309.383 247.679 309.295 247.518 309.178 247.342C309.061 247.181 308.936 247.012 308.804 246.836C308.672 246.675 308.547 246.535 308.43 246.418C309.867 245.949 311.026 245.355 311.906 244.636C312.786 243.917 313.468 243.111 313.952 242.216C314.436 241.307 314.781 240.353 314.986 239.356C315.206 238.359 315.375 237.339 315.492 236.298Z" fill="#AEB8C8"/>
</g>
<path d="M200.84 292.62H206.84V294H200.84V292.62ZM200.84 297.08H207.02V298.44H200.84V297.08ZM199.86 288.86H201.34V303.6H199.86V288.86ZM198.64 285.18L200.12 285.5C199.867 286.513 199.56 287.507 199.2 288.48C198.84 289.453 198.44 290.367 198 291.22C197.573 292.073 197.113 292.827 196.62 293.48C196.54 293.387 196.427 293.273 196.28 293.14C196.147 292.993 196.007 292.853 195.86 292.72C195.727 292.573 195.6 292.46 195.48 292.38C195.947 291.793 196.373 291.113 196.76 290.34C197.16 289.567 197.52 288.74 197.84 287.86C198.16 286.98 198.427 286.087 198.64 285.18ZM198.12 288.42H207.28V289.82H197.56L198.12 288.42ZM190.28 286.76H195.42V299.84H190.28V298.48H193.98V288.12H190.28V286.76ZM190.3 292.52H194.66V293.86H190.3V292.52ZM189.52 286.76H190.94V301.4H189.52V286.76ZM218.92 285.22L220.38 285.44C220.087 286.173 219.727 286.927 219.3 287.7C218.873 288.473 218.373 289.233 217.8 289.98C217.24 290.727 216.593 291.427 215.86 292.08C215.78 291.96 215.68 291.84 215.56 291.72C215.44 291.6 215.313 291.487 215.18 291.38C215.047 291.26 214.927 291.173 214.82 291.12C215.5 290.533 216.1 289.907 216.62 289.24C217.153 288.56 217.607 287.873 217.98 287.18C218.367 286.473 218.68 285.82 218.92 285.22ZM218.88 286.92H223.36V288.2H218.12L218.88 286.92ZM220.6 290.68H222.04C221.973 291.933 221.873 293.113 221.74 294.22C221.607 295.327 221.387 296.36 221.08 297.32C220.787 298.28 220.36 299.16 219.8 299.96C219.24 300.747 218.5 301.447 217.58 302.06C216.66 302.687 215.507 303.22 214.12 303.66C214.04 303.473 213.913 303.253 213.74 303C213.567 302.76 213.393 302.567 213.22 302.42C214.553 302.047 215.653 301.587 216.52 301.04C217.387 300.48 218.08 299.84 218.6 299.12C219.133 298.4 219.533 297.607 219.8 296.74C220.067 295.86 220.253 294.913 220.36 293.9C220.467 292.887 220.547 291.813 220.6 290.68ZM221.54 295.66H222.96V301.32C222.96 301.587 223 301.753 223.08 301.82C223.16 301.887 223.333 301.92 223.6 301.92C223.653 301.92 223.753 301.92 223.9 301.92C224.06 301.92 224.233 301.92 224.42 301.92C224.62 301.92 224.8 301.92 224.96 301.92C225.133 301.92 225.26 301.92 225.34 301.92C225.513 301.92 225.647 301.867 225.74 301.76C225.833 301.64 225.9 301.393 225.94 301.02C225.98 300.647 226.007 300.08 226.02 299.32C226.127 299.4 226.253 299.48 226.4 299.56C226.56 299.627 226.72 299.693 226.88 299.76C227.04 299.813 227.187 299.86 227.32 299.9C227.267 300.793 227.18 301.487 227.06 301.98C226.94 302.46 226.753 302.793 226.5 302.98C226.26 303.18 225.92 303.28 225.48 303.28C225.4 303.28 225.26 303.28 225.06 303.28C224.873 303.28 224.667 303.28 224.44 303.28C224.213 303.28 224 303.28 223.8 303.28C223.613 303.28 223.48 303.28 223.4 303.28C222.907 303.28 222.527 303.22 222.26 303.1C221.993 302.993 221.807 302.793 221.7 302.5C221.593 302.22 221.54 301.833 221.54 301.34V295.66ZM210.3 286.68H215V299.7H210.3V298.34H213.64V288.04H210.3V286.68ZM210.32 292.42H214.26V293.76H210.32V292.42ZM209.54 286.68H210.9V301.26H209.54V286.68ZM217.7 291.54V295.14H225V291.54H217.7ZM216.36 290.26H226.42V296.42H216.36V290.26ZM222.86 286.92H223.16L223.4 286.86L224.32 287.46C224.133 287.887 223.9 288.32 223.62 288.76C223.353 289.2 223.067 289.62 222.76 290.02C222.467 290.42 222.18 290.767 221.9 291.06C221.78 290.967 221.62 290.86 221.42 290.74C221.22 290.607 221.04 290.513 220.88 290.46C221.133 290.167 221.38 289.833 221.62 289.46C221.873 289.073 222.107 288.68 222.32 288.28C222.547 287.88 222.727 287.52 222.86 287.2V286.92ZM230.24 286.42H234.38V300.28H230.24V298.94H233.16V287.78H230.24V286.42ZM230.28 290.56H233.74V291.86H230.28V290.56ZM230.26 294.7H233.72V296H230.26V294.7ZM229.5 286.42H230.76V302.02H229.5V286.42ZM245 285.44L245.74 286.7C244.9 286.887 243.94 287.047 242.86 287.18C241.793 287.313 240.687 287.427 239.54 287.52C238.407 287.613 237.32 287.673 236.28 287.7C236.267 287.527 236.22 287.327 236.14 287.1C236.06 286.873 235.98 286.673 235.9 286.5C236.687 286.46 237.493 286.407 238.32 286.34C239.16 286.26 239.987 286.18 240.8 286.1C241.613 286.02 242.38 285.927 243.1 285.82C243.82 285.7 244.453 285.573 245 285.44ZM235.4 289.86H246.66V291.28H235.4V289.86ZM235.32 297.64H246.64V299.06H235.32V297.64ZM235.1 293.72H247.1V295.16H235.1V293.72ZM240.38 286.82H241.82V302.46H240.38V286.82ZM237.02 290.46H238.3V298.26H237.02V290.46ZM243.8 290.46H245.1V298.26H243.8V290.46ZM236.02 301.72H245.98V303.08H236.02V301.72ZM250.16 286.42H254.94V300.28H250.16V298.94H253.52V287.78H250.16V286.42ZM250.24 290.56H254.38V291.86H250.24V290.56ZM250.24 294.7H254.38V296H250.24V294.7ZM249.44 286.42H250.86V302.02H249.44V286.42ZM257.1 286.06H266.2V291.68H257.1V290.3H264.72V287.44H257.1V286.06ZM257.08 294.66H267.1V296.06H257.08V294.66ZM261.04 290.84H262.52C262.533 292.44 262.613 293.92 262.76 295.28C262.907 296.64 263.113 297.827 263.38 298.84C263.647 299.84 263.96 300.613 264.32 301.16C264.68 301.707 265.073 301.98 265.5 301.98C265.727 301.98 265.887 301.76 265.98 301.32C266.073 300.867 266.14 300.153 266.18 299.18C266.34 299.327 266.533 299.467 266.76 299.6C266.987 299.72 267.193 299.813 267.38 299.88C267.313 300.8 267.2 301.52 267.04 302.04C266.893 302.56 266.687 302.92 266.42 303.12C266.167 303.333 265.827 303.44 265.4 303.44C264.8 303.44 264.267 303.227 263.8 302.8C263.347 302.387 262.953 301.8 262.62 301.04C262.287 300.267 262.007 299.36 261.78 298.32C261.553 297.267 261.38 296.107 261.26 294.84C261.14 293.573 261.067 292.24 261.04 290.84ZM256.16 303.66L256.06 302.36L256.78 301.8L261.6 300.68C261.587 300.88 261.587 301.113 261.6 301.38C261.613 301.647 261.633 301.867 261.66 302.04C260.553 302.32 259.653 302.553 258.96 302.74C258.28 302.927 257.753 303.073 257.38 303.18C257.007 303.3 256.733 303.393 256.56 303.46C256.4 303.54 256.267 303.607 256.16 303.66ZM256.16 303.66C256.12 303.553 256.053 303.433 255.96 303.3C255.88 303.167 255.787 303.027 255.68 302.88C255.573 302.733 255.48 302.62 255.4 302.54C255.533 302.46 255.68 302.347 255.84 302.2C256.013 302.053 256.16 301.867 256.28 301.64C256.413 301.413 256.48 301.147 256.48 300.84V286.06H257.9V301.96C257.9 301.96 257.84 302 257.72 302.08C257.6 302.16 257.453 302.267 257.28 302.4C257.12 302.533 256.953 302.673 256.78 302.82C256.607 302.98 256.46 303.133 256.34 303.28C256.22 303.427 256.16 303.553 256.16 303.66Z" fill="#AEB8C8"/>
<path d="M138.123 352V350.124C140.157 348.313 141.856 346.661 143.219 345.168C144.581 343.656 145.599 342.256 146.271 340.968C146.961 339.68 147.307 338.476 147.307 337.356C147.307 336.609 147.176 335.956 146.915 335.396C146.672 334.817 146.289 334.379 145.767 334.08C145.263 333.763 144.619 333.604 143.835 333.604C143.032 333.604 142.295 333.828 141.623 334.276C140.951 334.705 140.335 335.237 139.775 335.872L137.955 334.08C138.832 333.109 139.756 332.353 140.727 331.812C141.716 331.271 142.892 331 144.255 331C145.505 331 146.597 331.261 147.531 331.784C148.464 332.288 149.183 333.007 149.687 333.94C150.209 334.855 150.471 335.937 150.471 337.188C150.471 338.513 150.144 339.857 149.491 341.22C148.837 342.564 147.941 343.927 146.803 345.308C145.664 346.671 144.367 348.052 142.911 349.452C143.452 349.396 144.021 349.349 144.619 349.312C145.235 349.256 145.785 349.228 146.271 349.228H151.451V352H138.123ZM160.363 352.392C159.281 352.392 158.319 352.261 157.479 352C156.658 351.739 155.93 351.393 155.295 350.964C154.661 350.516 154.11 350.04 153.643 349.536L155.211 347.464C155.827 348.061 156.527 348.584 157.311 349.032C158.095 349.48 159.019 349.704 160.083 349.704C160.867 349.704 161.549 349.573 162.127 349.312C162.706 349.032 163.154 348.64 163.471 348.136C163.807 347.632 163.975 347.016 163.975 346.288C163.975 345.541 163.789 344.888 163.415 344.328C163.061 343.749 162.435 343.311 161.539 343.012C160.662 342.695 159.449 342.536 157.899 342.536V340.128C159.262 340.128 160.326 339.979 161.091 339.68C161.875 339.363 162.435 338.933 162.771 338.392C163.126 337.851 163.303 337.235 163.303 336.544C163.303 335.648 163.023 334.939 162.463 334.416C161.903 333.875 161.129 333.604 160.139 333.604C159.355 333.604 158.618 333.781 157.927 334.136C157.255 334.472 156.621 334.929 156.023 335.508L154.343 333.492C155.165 332.745 156.061 332.148 157.031 331.7C158.002 331.233 159.075 331 160.251 331C161.483 331 162.575 331.215 163.527 331.644C164.479 332.055 165.226 332.652 165.767 333.436C166.309 334.22 166.579 335.181 166.579 336.32C166.579 337.496 166.253 338.495 165.599 339.316C164.965 340.137 164.106 340.753 163.023 341.164V341.276C163.807 341.481 164.517 341.817 165.151 342.284C165.805 342.732 166.318 343.311 166.691 344.02C167.065 344.729 167.251 345.541 167.251 346.456C167.251 347.688 166.934 348.752 166.299 349.648C165.683 350.525 164.853 351.207 163.807 351.692C162.762 352.159 161.614 352.392 160.363 352.392ZM173 341.36C172.403 341.36 171.889 341.155 171.46 340.744C171.049 340.315 170.844 339.773 170.844 339.12C170.844 338.448 171.049 337.897 171.46 337.468C171.889 337.039 172.403 336.824 173 336.824C173.616 336.824 174.129 337.039 174.54 337.468C174.969 337.897 175.184 338.448 175.184 339.12C175.184 339.773 174.969 340.315 174.54 340.744C174.129 341.155 173.616 341.36 173 341.36ZM173 352.392C172.403 352.392 171.889 352.177 171.46 351.748C171.049 351.3 170.844 350.749 170.844 350.096C170.844 349.424 171.049 348.883 171.46 348.472C171.889 348.043 172.403 347.828 173 347.828C173.616 347.828 174.129 348.043 174.54 348.472C174.969 348.883 175.184 349.424 175.184 350.096C175.184 350.749 174.969 351.3 174.54 351.748C174.129 352.177 173.616 352.392 173 352.392ZM179.548 352V349.34H184.084V335.004H180.388V332.96C181.359 332.792 182.199 332.577 182.908 332.316C183.636 332.055 184.299 331.737 184.896 331.364H187.332V349.34H191.336V352H179.548ZM201.145 352.392C199.857 352.392 198.709 352.159 197.701 351.692C196.693 351.207 195.89 350.553 195.293 349.732C194.714 348.892 194.425 347.94 194.425 346.876C194.425 345.961 194.602 345.149 194.957 344.44C195.311 343.731 195.769 343.124 196.329 342.62C196.889 342.097 197.477 341.668 198.093 341.332V341.192C197.346 340.651 196.702 339.988 196.161 339.204C195.619 338.401 195.349 337.459 195.349 336.376C195.349 335.312 195.601 334.379 196.105 333.576C196.627 332.773 197.327 332.157 198.205 331.728C199.101 331.28 200.118 331.056 201.257 331.056C202.451 331.056 203.478 331.289 204.337 331.756C205.195 332.223 205.858 332.867 206.325 333.688C206.81 334.491 207.053 335.433 207.053 336.516C207.053 337.207 206.913 337.86 206.633 338.476C206.353 339.092 206.007 339.652 205.597 340.156C205.205 340.641 204.785 341.043 204.337 341.36V341.5C204.971 341.836 205.55 342.256 206.073 342.76C206.595 343.245 207.015 343.833 207.333 344.524C207.65 345.215 207.809 346.027 207.809 346.96C207.809 347.968 207.529 348.883 206.969 349.704C206.427 350.525 205.653 351.179 204.645 351.664C203.655 352.149 202.489 352.392 201.145 352.392ZM202.517 340.548C203.114 339.969 203.562 339.363 203.861 338.728C204.178 338.075 204.337 337.393 204.337 336.684C204.337 336.068 204.215 335.508 203.973 335.004C203.73 334.5 203.366 334.108 202.881 333.828C202.414 333.529 201.845 333.38 201.173 333.38C200.333 333.38 199.633 333.651 199.073 334.192C198.513 334.715 198.233 335.443 198.233 336.376C198.233 337.123 198.429 337.748 198.821 338.252C199.213 338.756 199.735 339.185 200.389 339.54C201.042 339.895 201.751 340.231 202.517 340.548ZM201.229 350.04C201.919 350.04 202.526 349.909 203.049 349.648C203.59 349.387 204.01 349.023 204.309 348.556C204.607 348.071 204.757 347.501 204.757 346.848C204.757 346.232 204.626 345.7 204.365 345.252C204.103 344.785 203.739 344.384 203.273 344.048C202.825 343.712 202.293 343.404 201.677 343.124C201.061 342.825 200.398 342.536 199.689 342.256C198.979 342.76 198.401 343.385 197.953 344.132C197.505 344.86 197.281 345.663 197.281 346.54C197.281 347.231 197.449 347.837 197.785 348.36C198.139 348.883 198.615 349.293 199.213 349.592C199.81 349.891 200.482 350.04 201.229 350.04ZM216.711 345.14V342.984H239.251V345.14H216.711ZM254.903 352.392C253.559 352.392 252.383 351.991 251.375 351.188C250.367 350.385 249.583 349.191 249.023 347.604C248.481 345.999 248.211 344.001 248.211 341.612C248.211 339.223 248.481 337.244 249.023 335.676C249.583 334.108 250.367 332.941 251.375 332.176C252.383 331.392 253.559 331 254.903 331C256.247 331 257.413 331.392 258.403 332.176C259.392 332.96 260.157 334.136 260.699 335.704C261.259 337.253 261.539 339.223 261.539 341.612C261.539 344.001 261.259 345.999 260.699 347.604C260.157 349.191 259.392 350.385 258.403 351.188C257.413 351.991 256.247 352.392 254.903 352.392ZM254.903 349.816C255.593 349.816 256.209 349.545 256.751 349.004C257.292 348.463 257.712 347.595 258.011 346.4C258.309 345.187 258.459 343.591 258.459 341.612C258.459 339.633 258.309 338.056 258.011 336.88C257.712 335.704 257.292 334.855 256.751 334.332C256.209 333.809 255.593 333.548 254.903 333.548C254.212 333.548 253.596 333.809 253.055 334.332C252.513 334.855 252.084 335.704 251.767 336.88C251.468 338.056 251.319 339.633 251.319 341.612C251.319 343.591 251.468 345.187 251.767 346.4C252.084 347.595 252.513 348.463 253.055 349.004C253.596 349.545 254.212 349.816 254.903 349.816ZM268.267 352C268.361 350.115 268.519 348.388 268.743 346.82C268.967 345.233 269.294 343.74 269.723 342.34C270.153 340.921 270.713 339.549 271.403 338.224C272.094 336.88 272.934 335.508 273.923 334.108H264.263V331.364H277.507V333.352C276.313 334.845 275.342 336.292 274.595 337.692C273.849 339.073 273.27 340.483 272.859 341.92C272.449 343.357 272.15 344.897 271.963 346.54C271.777 348.164 271.646 349.984 271.571 352H268.267ZM283.004 341.36C282.407 341.36 281.893 341.155 281.464 340.744C281.053 340.315 280.848 339.773 280.848 339.12C280.848 338.448 281.053 337.897 281.464 337.468C281.893 337.039 282.407 336.824 283.004 336.824C283.62 336.824 284.133 337.039 284.544 337.468C284.973 337.897 285.188 338.448 285.188 339.12C285.188 339.773 284.973 340.315 284.544 340.744C284.133 341.155 283.62 341.36 283.004 341.36ZM283.004 352.392C282.407 352.392 281.893 352.177 281.464 351.748C281.053 351.3 280.848 350.749 280.848 350.096C280.848 349.424 281.053 348.883 281.464 348.472C281.893 348.043 282.407 347.828 283.004 347.828C283.62 347.828 284.133 348.043 284.544 348.472C284.973 348.883 285.188 349.424 285.188 350.096C285.188 350.749 284.973 351.3 284.544 351.748C284.133 352.177 283.62 352.392 283.004 352.392ZM295.18 352.392C293.836 352.392 292.66 351.991 291.652 351.188C290.644 350.385 289.86 349.191 289.3 347.604C288.759 345.999 288.488 344.001 288.488 341.612C288.488 339.223 288.759 337.244 289.3 335.676C289.86 334.108 290.644 332.941 291.652 332.176C292.66 331.392 293.836 331 295.18 331C296.524 331 297.691 331.392 298.68 332.176C299.669 332.96 300.435 334.136 300.976 335.704C301.536 337.253 301.816 339.223 301.816 341.612C301.816 344.001 301.536 345.999 300.976 347.604C300.435 349.191 299.669 350.385 298.68 351.188C297.691 351.991 296.524 352.392 295.18 352.392ZM295.18 349.816C295.871 349.816 296.487 349.545 297.028 349.004C297.569 348.463 297.989 347.595 298.288 346.4C298.587 345.187 298.736 343.591 298.736 341.612C298.736 339.633 298.587 338.056 298.288 336.88C297.989 335.704 297.569 334.855 297.028 334.332C296.487 333.809 295.871 333.548 295.18 333.548C294.489 333.548 293.873 333.809 293.332 334.332C292.791 334.855 292.361 335.704 292.044 336.88C291.745 338.056 291.596 339.633 291.596 341.612C291.596 343.591 291.745 345.187 292.044 346.4C292.361 347.595 292.791 348.463 293.332 349.004C293.873 349.545 294.489 349.816 295.18 349.816ZM311.149 352.392C309.805 352.392 308.629 351.991 307.621 351.188C306.613 350.385 305.829 349.191 305.269 347.604C304.727 345.999 304.457 344.001 304.457 341.612C304.457 339.223 304.727 337.244 305.269 335.676C305.829 334.108 306.613 332.941 307.621 332.176C308.629 331.392 309.805 331 311.149 331C312.493 331 313.659 331.392 314.649 332.176C315.638 332.96 316.403 334.136 316.945 335.704C317.505 337.253 317.785 339.223 317.785 341.612C317.785 344.001 317.505 345.999 316.945 347.604C316.403 349.191 315.638 350.385 314.649 351.188C313.659 351.991 312.493 352.392 311.149 352.392ZM311.149 349.816C311.839 349.816 312.455 349.545 312.997 349.004C313.538 348.463 313.958 347.595 314.257 346.4C314.555 345.187 314.705 343.591 314.705 341.612C314.705 339.633 314.555 338.056 314.257 336.88C313.958 335.704 313.538 334.855 312.997 334.332C312.455 333.809 311.839 333.548 311.149 333.548C310.458 333.548 309.842 333.809 309.301 334.332C308.759 334.855 308.33 335.704 308.013 336.88C307.714 338.056 307.565 339.633 307.565 341.612C307.565 343.591 307.714 345.187 308.013 346.4C308.33 347.595 308.759 348.463 309.301 349.004C309.842 349.545 310.458 349.816 311.149 349.816Z" fill="#F4F6FA"/>
<path d="M152.965 410.212H169.003V411.562H152.965V410.212ZM159.913 411.274H161.335V425.422H159.913V411.274ZM160.687 415.54L161.587 414.514C162.127 414.766 162.697 415.054 163.297 415.378C163.897 415.702 164.491 416.038 165.079 416.386C165.667 416.722 166.213 417.052 166.717 417.376C167.233 417.7 167.671 418 168.031 418.276L167.077 419.5C166.729 419.224 166.303 418.918 165.799 418.582C165.307 418.234 164.767 417.886 164.179 417.538C163.603 417.178 163.015 416.83 162.415 416.494C161.815 416.146 161.239 415.828 160.687 415.54ZM177.733 419.122H184.357V420.13H177.733V419.122ZM177.733 421.444H184.357V422.434H177.733V421.444ZM177.013 416.764H184.357V417.844H178.255V425.44H177.013V416.764ZM184.015 416.764H185.311V424.072C185.311 424.408 185.263 424.666 185.167 424.846C185.071 425.026 184.903 425.164 184.663 425.26C184.411 425.356 184.075 425.41 183.655 425.422C183.235 425.446 182.707 425.458 182.071 425.458C182.047 425.302 181.993 425.116 181.909 424.9C181.837 424.696 181.765 424.516 181.693 424.36C182.149 424.372 182.563 424.378 182.935 424.378C183.319 424.39 183.571 424.39 183.691 424.378C183.811 424.378 183.895 424.354 183.943 424.306C183.991 424.27 184.015 424.192 184.015 424.072V416.764ZM175.249 414.406H187.111V417.466H185.797V415.504H176.491V417.466H175.249V414.406ZM177.139 409.546H185.203V415H183.925V410.626H178.363V415H177.139V409.546ZM177.661 411.85H181.945V415.072H180.811V412.768H177.661V411.85ZM171.649 410.014L172.495 409.132C172.855 409.348 173.239 409.594 173.647 409.87C174.067 410.134 174.457 410.398 174.817 410.662C175.189 410.926 175.495 411.16 175.735 411.364L174.853 412.372C174.625 412.156 174.325 411.91 173.953 411.634C173.593 411.346 173.209 411.064 172.801 410.788C172.405 410.5 172.021 410.242 171.649 410.014ZM170.731 415.018L171.523 414.082C171.859 414.25 172.219 414.448 172.603 414.676C172.987 414.892 173.359 415.114 173.719 415.342C174.079 415.558 174.373 415.762 174.601 415.954L173.791 416.998C173.575 416.806 173.293 416.596 172.945 416.368C172.597 416.14 172.225 415.906 171.829 415.666C171.445 415.426 171.079 415.21 170.731 415.018ZM171.343 424.288C171.619 423.832 171.919 423.292 172.243 422.668C172.579 422.044 172.915 421.384 173.251 420.688C173.599 419.98 173.917 419.296 174.205 418.636L175.267 419.464C175.003 420.076 174.715 420.718 174.403 421.39C174.091 422.05 173.773 422.704 173.449 423.352C173.125 424 172.813 424.594 172.513 425.134L171.343 424.288ZM201 415.252C201.36 415.252 201.684 415.336 201.972 415.504C202.26 415.672 202.488 415.9 202.656 416.188C202.824 416.476 202.908 416.8 202.908 417.16C202.908 417.508 202.824 417.832 202.656 418.132C202.488 418.42 202.26 418.648 201.972 418.816C201.684 418.984 201.36 419.068 201 419.068C200.652 419.068 200.328 418.984 200.028 418.816C199.74 418.648 199.512 418.42 199.344 418.132C199.176 417.832 199.092 417.508 199.092 417.16C199.092 416.8 199.176 416.476 199.344 416.188C199.512 415.9 199.74 415.672 200.028 415.504C200.328 415.336 200.652 415.252 201 415.252ZM216.041 409.978H219.767V422.452H216.041V421.246H218.669V411.202H216.041V409.978ZM216.077 413.704H219.191V414.874H216.077V413.704ZM216.059 417.43H219.173V418.6H216.059V417.43ZM215.375 409.978H216.509V424.018H215.375V409.978ZM229.325 409.096L229.991 410.23C229.235 410.398 228.371 410.542 227.399 410.662C226.439 410.782 225.443 410.884 224.411 410.968C223.391 411.052 222.413 411.106 221.477 411.13C221.465 410.974 221.423 410.794 221.351 410.59C221.279 410.386 221.207 410.206 221.135 410.05C221.843 410.014 222.569 409.966 223.313 409.906C224.069 409.834 224.813 409.762 225.545 409.69C226.277 409.618 226.967 409.534 227.615 409.438C228.263 409.33 228.833 409.216 229.325 409.096ZM220.685 413.074H230.819V414.352H220.685V413.074ZM220.613 420.076H230.801V421.354H220.613V420.076ZM220.415 416.548H231.215V417.844H220.415V416.548ZM225.167 410.338H226.463V424.414H225.167V410.338ZM222.143 413.614H223.295V420.634H222.143V413.614ZM228.245 413.614H229.415V420.634H228.245V413.614ZM221.243 423.748H230.207V424.972H221.243V423.748ZM233.969 409.978H238.271V422.452H233.969V421.246H236.993V411.202H233.969V409.978ZM234.041 413.704H237.767V414.874H234.041V413.704ZM234.041 417.43H237.767V418.6H234.041V417.43ZM233.321 409.978H234.599V424.018H233.321V409.978ZM240.215 409.654H248.405V414.712H240.215V413.47H247.073V410.896H240.215V409.654ZM240.197 417.394H249.215V418.654H240.197V417.394ZM243.761 413.956H245.093C245.105 415.396 245.177 416.728 245.309 417.952C245.441 419.176 245.627 420.244 245.867 421.156C246.107 422.056 246.389 422.752 246.713 423.244C247.037 423.736 247.391 423.982 247.775 423.982C247.979 423.982 248.123 423.784 248.207 423.388C248.291 422.98 248.351 422.338 248.387 421.462C248.531 421.594 248.705 421.72 248.909 421.84C249.113 421.948 249.299 422.032 249.467 422.092C249.407 422.92 249.305 423.568 249.161 424.036C249.029 424.504 248.843 424.828 248.603 425.008C248.375 425.2 248.069 425.296 247.685 425.296C247.145 425.296 246.665 425.104 246.245 424.72C245.837 424.348 245.483 423.82 245.183 423.136C244.883 422.44 244.631 421.624 244.427 420.688C244.223 419.74 244.067 418.696 243.959 417.556C243.851 416.416 243.785 415.216 243.761 413.956ZM239.369 425.494L239.279 424.324L239.927 423.82L244.265 422.812C244.253 422.992 244.253 423.202 244.265 423.442C244.277 423.682 244.295 423.88 244.319 424.036C243.323 424.288 242.513 424.498 241.889 424.666C241.277 424.834 240.803 424.966 240.467 425.062C240.131 425.17 239.885 425.254 239.729 425.314C239.585 425.386 239.465 425.446 239.369 425.494ZM239.369 425.494C239.333 425.398 239.273 425.29 239.189 425.17C239.117 425.05 239.033 424.924 238.937 424.792C238.841 424.66 238.757 424.558 238.685 424.486C238.805 424.414 238.937 424.312 239.081 424.18C239.237 424.048 239.369 423.88 239.477 423.676C239.597 423.472 239.657 423.232 239.657 422.956V409.654H240.935V423.964C240.935 423.964 240.881 424 240.773 424.072C240.665 424.144 240.533 424.24 240.377 424.36C240.233 424.48 240.083 424.606 239.927 424.738C239.771 424.882 239.639 425.02 239.531 425.152C239.423 425.284 239.369 425.398 239.369 425.494ZM252.149 410.392H257.117V422.092H252.149V420.868H255.857V411.616H252.149V410.392ZM252.203 415.558H256.325V416.764H252.203V415.558ZM251.483 410.392H252.779V423.55H251.483V410.392ZM257.945 412.48H267.341V413.83H257.945V412.48ZM263.777 408.97H265.145V423.406C265.145 423.898 265.073 424.258 264.929 424.486C264.797 424.726 264.569 424.9 264.245 425.008C263.921 425.128 263.465 425.2 262.877 425.224C262.289 425.248 261.545 425.26 260.645 425.26C260.609 425.068 260.543 424.834 260.447 424.558C260.351 424.294 260.249 424.066 260.141 423.874C260.621 423.886 261.071 423.898 261.491 423.91C261.923 423.922 262.295 423.928 262.607 423.928C262.919 423.916 263.141 423.904 263.273 423.892C263.453 423.892 263.579 423.856 263.651 423.784C263.735 423.712 263.777 423.586 263.777 423.406V408.97ZM258.557 415.864L259.673 415.27C259.997 415.726 260.339 416.218 260.699 416.746C261.059 417.274 261.395 417.784 261.707 418.276C262.031 418.768 262.295 419.2 262.499 419.572L261.311 420.256C261.119 419.884 260.867 419.446 260.555 418.942C260.255 418.426 259.925 417.898 259.565 417.358C259.217 416.818 258.881 416.32 258.557 415.864ZM269.663 412.93H271.049V425.44H269.663V412.93ZM269.933 409.762L270.977 409.114C271.265 409.366 271.553 409.648 271.841 409.96C272.129 410.26 272.399 410.56 272.651 410.86C272.903 411.16 273.095 411.436 273.227 411.688L272.111 412.408C271.967 412.168 271.775 411.892 271.535 411.58C271.307 411.268 271.049 410.956 270.761 410.644C270.485 410.32 270.209 410.026 269.933 409.762ZM274.361 409.888H283.829V411.166H274.361V409.888ZM283.073 409.888H284.459V423.802C284.459 424.174 284.411 424.456 284.315 424.648C284.231 424.852 284.069 425.014 283.829 425.134C283.589 425.242 283.271 425.302 282.875 425.314C282.491 425.338 282.023 425.35 281.471 425.35C281.435 425.182 281.375 424.972 281.291 424.72C281.219 424.48 281.135 424.276 281.039 424.108C281.423 424.12 281.777 424.126 282.101 424.126C282.425 424.126 282.647 424.126 282.767 424.126C282.887 424.114 282.965 424.084 283.001 424.036C283.049 423.988 283.073 423.91 283.073 423.802V409.888ZM274.847 418.69V421.12H279.167V418.69H274.847ZM274.847 415.162V417.556H279.167V415.162H274.847ZM273.623 414.028H280.445V422.236H273.623V414.028ZM294.359 412.714H302.765V425.332H301.505V413.938H295.583V425.44H294.359V412.714ZM294.899 417.808H301.793V419.014H294.899V417.808ZM294.899 423.208H301.793V424.432H294.899V423.208ZM297.905 408.898H299.255V413.308H299.201V423.928H297.959V413.308H297.905V408.898ZM286.961 410.968H293.531V412.228H286.961V410.968ZM290.615 413.758H291.821V425.35H290.615V413.758ZM286.817 420.994C287.393 420.898 288.047 420.79 288.779 420.67C289.523 420.538 290.309 420.4 291.137 420.256C291.965 420.112 292.799 419.962 293.639 419.806L293.711 420.994C292.547 421.234 291.383 421.474 290.219 421.714C289.055 421.942 288.017 422.14 287.105 422.308L286.817 420.994ZM287.537 418.024C287.525 417.94 287.489 417.826 287.429 417.682C287.381 417.526 287.327 417.376 287.267 417.232C287.219 417.076 287.171 416.944 287.123 416.836C287.279 416.8 287.423 416.65 287.555 416.386C287.687 416.11 287.831 415.774 287.987 415.378C288.059 415.186 288.167 414.868 288.311 414.424C288.455 413.98 288.605 413.458 288.761 412.858C288.929 412.246 289.091 411.598 289.247 410.914C289.403 410.23 289.529 409.552 289.625 408.88L290.939 409.15C290.759 410.11 290.537 411.076 290.273 412.048C290.009 413.02 289.715 413.956 289.391 414.856C289.079 415.744 288.761 416.548 288.437 417.268V417.304C288.437 417.304 288.389 417.328 288.293 417.376C288.209 417.424 288.107 417.49 287.987 417.574C287.867 417.646 287.759 417.724 287.663 417.808C287.579 417.892 287.537 417.964 287.537 418.024ZM287.537 418.024V416.908L288.275 416.548H293.549V417.772H288.869C288.557 417.772 288.275 417.796 288.023 417.844C287.783 417.892 287.621 417.952 287.537 418.024Z" fill="#AEB8C8"/>
</g>
<defs>
<radialGradient id="paint0_radial_73_23998" cx="0" cy="0" r="1" gradientUnits="userSpaceOnUse" gradientTransform="translate(228 218.88) scale(264.48)">
<stop stop-color="#263258" stop-opacity="0.62"/>
<stop offset="0.65" stop-color="#263258" stop-opacity="0.22"/>
<stop offset="1" stop-opacity="0"/>
</radialGradient>
<clipPath id="clip0_73_23998">
<rect width="456" height="456" rx="80" fill="white"/>
</clipPath>
<clipPath id="clip1_73_23998">
<rect width="456" height="456" fill="white"/>
</clipPath>
<clipPath id="clip2_73_23998">
<rect width="202" height="91" fill="white" transform="translate(127 170)"/>
</clipPath>
</defs>
</svg>
